<svg width="280" height="280" viewBox="0 0 280 280" fill="none" xmlns="http://www.w3.org/2000/svg">
<path d="M170.793 150.628L170.924 150.092L171.017 149.705C173.81 137.843 172.281 125.866 167.847 116.431C163.343 106.849 156.154 100.437 148.033 98.6512C130.81 94.8636 109.432 107.669 104.204 130.261L104.146 130.512L104.067 130.758C100.089 143.033 101.148 155.462 105.444 165.359C109.77 175.323 117.117 182.227 125.35 184.433C142.224 188.954 163.89 178.474 170.793 150.628Z" fill="black"/>
<path fill-rule="evenodd" clip-rule="evenodd" d="M251 140C251 200.751 201.304 250 140 250C78.6964 250 29 200.751 29 140C29 79.2487 78.6964 30 140 30C201.304 30 251 79.2487 251 140ZM142.193 42C86.0203 42 41 83.4129 41 140.015C41 167.836 50.0851 192.533 67.1599 210.314C84.27 228.132 108.95 238.53 139.187 238.53C155.469 238.53 180.512 233.528 195.788 224.727C198.659 223.072 199.646 219.404 197.992 216.532C196.337 213.661 192.669 212.675 189.797 214.329C176.812 221.811 153.982 226.53 139.187 226.53C111.809 226.53 90.3949 217.185 75.8154 202.002C61.2006 186.783 53 165.222 53 140.015C53 90.5619 92.1139 54 142.193 54C192.363 54 230.689 91.1193 225.902 139.423C223.804 160.596 214.459 174.134 204.52 181.437C199.504 185.122 194.356 187.213 189.871 187.965C185.308 188.731 181.861 188.058 179.787 186.844C178.121 185.87 177.031 183.565 176.909 179.631C176.854 177.856 177.02 176.156 177.211 174.876C177.305 174.246 177.402 173.741 177.471 173.409C177.505 173.244 177.532 173.123 177.549 173.053C177.556 173.021 177.561 173 177.564 172.99L177.564 172.986C177.565 172.985 177.565 172.983 177.565 172.983L177.588 172.897L177.674 172.558C177.75 172.262 177.861 171.829 178.002 171.278C178.283 170.177 178.683 168.605 179.159 166.72C180.075 163.092 181.275 158.299 182.451 153.474C182.497 153.286 182.543 153.098 182.589 152.909C182.623 152.765 182.658 152.622 182.692 152.478C186.351 137.21 190.304 121.678 193.355 109.92C194.894 103.989 196.202 99.0226 197.125 95.5399C197.587 93.7987 197.952 92.4286 198.202 91.4945C198.326 91.0275 198.422 90.6695 198.487 90.4287L198.584 90.067C198.584 90.0668 198.584 90.0658 192.791 88.5064L198.584 90.0658C199.446 86.866 197.55 83.5738 194.35 82.7126C191.15 81.8513 187.858 83.7471 186.997 86.9469L192.791 88.5064C186.997 86.9469 186.997 86.9466 186.997 86.9469L186.996 86.9487L186.897 87.3198C186.864 87.4427 186.823 87.5952 186.774 87.7763C186.726 87.9554 186.671 88.1624 186.608 88.3964C186.357 89.3378 185.99 90.7159 185.526 92.4657C184.598 95.965 183.285 100.952 181.74 106.906C181.156 109.156 180.539 111.544 179.898 114.043C179.522 113.122 179.125 112.216 178.707 111.326C173.08 99.3547 163.312 89.7247 150.61 86.9313C126.258 81.5757 99.1989 99.2571 92.5723 127.303C87.7666 142.342 89.0307 157.684 94.437 170.137C99.8431 182.59 109.653 192.65 122.244 196.024C137.187 200.028 153.222 195.675 165.33 184.156C166.125 188.718 168.275 194.012 173.726 197.202C178.917 200.239 185.428 200.879 191.857 199.8C198.364 198.708 205.241 195.798 211.625 191.107C224.484 181.658 235.433 164.941 237.844 140.607C243.441 84.1152 198.275 42 142.193 42Z" fill="black"/>
</svg>
