<svg width="280" height="280" viewBox="0 0 280 280" xmlns="http://www.w3.org/2000/svg">
    <path d="M177.913 116.831a2238.64 2238.64 0 0 0-3.678 14.41c-.66 2.622-1.301 5.195-1.923 7.715a1461.211 1461.211 0 0 0-2.536 10.422c-6.556 26.462-31.533 43.304-51.314 38.004-17.337-4.646-24.807-28.63-17.256-56.81 7.361-27.473 27.593-44.72 45.45-39.934 17.011 4.558 29.072 33.5 23.314 57.936a352.26 352.26 0 0 1-.5 2.057 1724.942 1724.942 0 0 1-4.48 17.87c-.243.952-.43 1.839-.613 2.992-.388 2.456-.57 4.984-.446 7.487.047.942.136 1.88.274 2.81.817 5.497 3.256 9.97 7.779 12.617 9.324 5.456 24.655 3.258 37.59-5.394 14.948-9.998 25.09-26.988 27.277-49.054C242.276 85.205 198.787 39 142.693 39 87.083 39 42 84 42 139.515c0 57.838 39.71 101.015 97.687 101.015 15.432 0 38.903-7.414 54.852-16.603a4.5 4.5 0 1 0-4.493-7.798c-14.678 8.456-36.662 15.401-50.359 15.401-52.83 0-88.687-38.987-88.687-92.015C51 88.975 92.05 48 142.693 48c50.85 0 90.095 41.694 85.202 91.071-1.922 19.394-10.619 33.962-23.325 42.46-10.324 6.906-22.086 8.593-28.041 5.108-1.85-1.083-2.97-3.137-3.421-6.171-.352-2.366-.244-5.018.16-7.571.08-.508.165-.966.248-1.362.107-.466.107-.466.193-.8a1296.066 1296.066 0 0 0 1.336-5.252 1733.693 1733.693 0 0 0 3.472-13.958l.21-.87c2.625-11.128 2.106-23.048-.814-33.824-4.618-17.04-15.24-31.219-28.927-34.886-23.498-6.297-47.97 14.565-56.474 46.298-8.676 32.38.431 61.619 23.62 67.832 16.38 4.389 34.87-2.798 47.8-17.095a63.839 63.839 0 0 0 14.585-27.455l.21-.87c.736-3.07 1.511-6.255 2.323-9.542a1800.37 1800.37 0 0 1 1.913-7.676c2.77-11.015 5.74-22.422 8.71-33.566a2592.827 2592.827 0 0 1 3.957-14.673 4.5 4.5 0 0 0-8.679-2.383 1053.458 1053.458 0 0 0-1.094 4.018 2722.33 2722.33 0 0 0-7.944 29.998z" fill-rule="nonzero" fill="#000"/>
</svg>
