<svg width="280" height="280" viewBox="0 0 280 280" fill="none" xmlns="http://www.w3.org/2000/svg">
<path d="M140 42.0448C85.3239 43.581 42 84.4896 42 140.015C42 167.836 51.0851 192.533 68.1599 210.314C85.2347 228.095 109.848 238.487 140 238.53V226.53C112.711 226.488 91.3617 217.15 76.8154 202.002C62.2006 186.783 54 165.222 54 140.015C54 91.618 91.4612 55.5675 140 54.0498V42.0448Z" fill="black"/>
<path d="M140 86.0652C119.246 87.3986 99.1558 103.672 93.5723 127.303C88.7666 142.342 90.0307 157.684 95.437 170.137C100.843 182.59 110.653 192.65 123.244 196.024C128.765 197.503 134.434 197.842 140 197.1V184.902C135.355 185.767 130.694 185.597 126.35 184.433C118.117 182.227 110.77 175.323 106.444 165.359C102.148 155.462 101.089 143.033 105.067 130.758L105.146 130.512L105.204 130.261C109.544 111.505 125.016 99.4941 140 98.1237V86.0652Z" fill="black"/>
<path d="M140 238.53C140.062 238.53 140.125 238.53 140.187 238.53C156.469 238.53 181.512 233.528 196.788 224.727C199.659 223.072 200.646 219.404 198.992 216.532C197.337 213.661 193.669 212.675 190.797 214.329C177.812 221.811 154.982 226.53 140.187 226.53C140.125 226.53 140.062 226.53 140 226.53V238.53Z" fill="black"/>
<path d="M140 197.1C149.499 195.833 158.695 191.419 166.33 184.156C167.125 188.718 169.275 194.012 174.726 197.202C179.917 200.239 186.428 200.879 192.857 199.8C199.364 198.708 206.241 195.798 212.625 191.107C225.484 181.658 236.433 164.941 238.844 140.607C244.441 84.1152 199.275 42 143.193 42C142.125 42 141.06 42.015 140 42.0448V54.0498C141.059 54.0167 142.124 54 143.193 54C193.363 54 231.689 91.1193 226.902 139.423C224.804 160.596 215.459 174.134 205.52 181.437C200.504 185.122 195.356 187.213 190.871 187.965C186.308 188.731 182.861 188.058 180.787 186.844C179.121 185.87 178.031 183.565 177.909 179.631C177.854 177.856 178.02 176.156 178.211 174.876C178.305 174.246 178.402 173.741 178.471 173.409C178.505 173.244 178.532 173.123 178.549 173.053C178.556 173.021 178.561 173 178.564 172.99L178.564 172.986C178.565 172.985 178.565 172.983 178.565 172.983L178.588 172.897L178.674 172.558C178.75 172.262 178.861 171.829 179.002 171.278C179.283 170.177 179.683 168.605 180.159 166.72C181.075 163.092 182.275 158.299 183.451 153.474C183.497 153.286 183.543 153.098 183.589 152.909C183.623 152.765 183.658 152.622 183.692 152.478C187.351 137.21 191.304 121.678 194.355 109.92C195.894 103.989 197.202 99.0226 198.125 95.5399C198.587 93.7987 198.952 92.4286 199.202 91.4945C199.326 91.0275 199.422 90.6695 199.487 90.4287L199.584 90.067C199.584 90.0668 199.584 90.0658 193.791 88.5064L199.584 90.0658C200.446 86.866 198.55 83.5738 195.35 82.7126C192.15 81.8513 188.858 83.7471 187.997 86.9469L193.791 88.5064C187.997 86.9469 187.997 86.9466 187.997 86.9469L187.996 86.9487L187.897 87.3198C187.831 87.5641 187.734 87.9257 187.608 88.3964C187.357 89.3378 186.99 90.7159 186.526 92.4657C185.598 95.965 184.285 100.952 182.74 106.906C182.156 109.156 181.539 111.544 180.898 114.043C180.522 113.122 180.125 112.216 179.707 111.326C174.08 99.3547 164.312 89.7247 151.61 86.9313C147.777 86.0883 143.877 85.8161 140 86.0652V98.1236C143.064 97.8434 146.108 98.0081 149.033 98.6512C157.154 100.437 164.343 106.849 168.847 116.431C173.281 125.866 174.81 137.843 172.017 149.705L171.924 150.092L171.793 150.628C166.667 171.306 153.4 182.408 140 184.902V197.1Z" fill="black"/>
</svg>
