<svg width="280" height="280" viewBox="0 0 280 280" xmlns="http://www.w3.org/2000/svg">
    <g transform="translate(29 27)" fill="none" fill-rule="evenodd">
        <ellipse fill="#000" cx="110.94" cy="113.159" rx="110.94" ry="113.159"/>
        <path d="M162.545 58.258s-9.637 35.087-17.035 65.995c-7.398 30.907-36.137 47.31-56.96 41.73-20.825-5.58-28.315-32.93-20.44-62.322 7.876-29.393 30.14-48.698 50.964-43.118 19.8 5.305 32.914 37.084 26.436 63.71-2.427 9.977-5.01 20.02-5.01 20.02s-3.895 15.294 5.01 20.505c14.53 8.501 53.61-5.501 58.119-51.01 5.192-52.4-36.555-96.018-89.683-96.018-53.127 0-96.196 42.989-96.196 96.018 0 53.03 35.573 96.518 93.19 96.518 15.54 0 38.476-7.861 52.607-16.003" stroke="#FFF" stroke-width="9" stroke-linecap="round"/>
    </g>
</svg>
