<svg width="284" height="284" viewBox="0 0 284 284" xmlns="http://www.w3.org/2000/svg">
    <g fill="#1A1918" fill-rule="evenodd">
        <path d="M130.843 121.724c-8.851 0-16.38 3.106-22.592 9.32-6.213 6.212-9.32 13.743-9.32 22.59 0 8.662 3.152 16.096 9.46 22.31 6.307 6.211 13.79 9.318 22.452 9.318 8.657 0 16.096-3.107 22.308-9.319 6.213-6.213 9.319-13.647 9.319-22.309 0-8.847-3.106-16.378-9.32-22.59-6.211-6.214-13.65-9.32-22.307-9.32"/>
        <path d="M226.89 130.151c-27.172 0-49.2-22.028-49.2-49.2 0-3.48.365-6.872 1.052-10.147-2.998-2.189-5.882-3.299-8.647-3.299H91.308c-6.403 0-13.555 6.213-21.462 18.64H50.362c-6.592 0-12.19 2.306-16.801 6.917-4.617 4.615-6.919 10.215-6.919 16.802v102.79c0 6.402 2.352 11.957 7.06 16.66 4.703 4.708 10.258 7.061 16.66 7.061h87.295c.266-10.156.353-20.31.15-30.465a56.685 56.685 0 0 1-7.81.531c-14.685 0-27.252-5.176-37.7-15.532-10.449-10.35-15.672-22.776-15.672-37.275 0-14.684 5.224-27.202 15.672-37.558 10.448-10.35 23.015-15.53 37.7-15.53 14.494 0 26.918 5.18 37.274 15.53 10.351 10.356 15.532 22.874 15.532 37.558 0 14.5-5.18 26.924-15.531 37.275-8.445 8.445-18.267 13.443-29.464 15.001.203 10.154.115 20.31-.15 30.465h73.383c6.589 0 12.188-2.353 16.804-7.06 4.61-4.704 6.918-10.259 6.918-16.66v-83.138a49.565 49.565 0 0 1-7.871.634"/>
        <polygon points="257.9875 70.164 235.6235 70.164 235.6235 47.8 218.1575 47.8 218.1575 70.164 195.7935 70.164 195.7935 87.629 218.1575 87.629 218.1575 109.994 235.6235 109.994 235.6235 87.629 257.9875 87.629"/>
    </g>
</svg>
