<svg width="284" height="284" viewBox="0 0 284 284" xmlns="http://www.w3.org/2000/svg">
    <g fill="#1A1918" fill-rule="evenodd">
        <path d="M239.525 141.764c0-53.78-43.752-97.531-97.531-97.531-53.78 0-97.531 43.752-97.531 97.53 0 53.78 43.752 97.532 97.53 97.532a97.028 97.028 0 0 0 34.83-6.434c-1.414-1.257-2.83-2.512-4.246-3.767a92.117 92.117 0 0 1-30.583 5.2c-51.022 0-92.531-41.508-92.531-92.53s41.509-92.531 92.53-92.531c51.023 0 92.532 41.509 92.532 92.53 0 40.31-25.91 74.674-61.948 87.33 1.416 1.256 2.832 2.51 4.246 3.768 36.628-14.052 62.702-49.584 62.702-91.097"/>
        <path d="M128.354 177.857a2.49 2.49 0 0 1-1.676-.646l-30.518-27.6a2.5 2.5 0 0 1 3.354-3.709l28.753 26.006 57.673-57.717a2.498 2.498 0 0 1 3.535-.001c.978.976.978 2.559.002 3.535l-59.354 59.4a2.498 2.498 0 0 1-1.77.732"/>
    </g>
</svg>
