<svg width="284" height="284" viewBox="0 0 284 284" fill="none" xmlns="http://www.w3.org/2000/svg">
<path fill-rule="evenodd" clip-rule="evenodd" d="M239.525 141.764C239.525 87.9849 195.773 44.2329 141.994 44.2329C88.2149 44.2329 44.4629 87.9849 44.4629 141.764C44.4629 195.543 88.2149 239.295 141.994 239.295C154.26 239.295 166.001 237.013 176.823 232.861C175.409 231.604 173.993 230.349 172.577 229.094C162.999 232.458 152.708 234.295 141.994 234.295C90.9719 234.295 49.4629 192.786 49.4629 141.764C49.4629 90.7419 90.9719 49.2329 141.994 49.2329C193.016 49.2329 234.525 90.7419 234.525 141.764C234.525 182.073 208.615 216.437 172.577 229.094C173.993 230.349 175.409 231.604 176.823 232.861C213.451 218.809 239.525 183.277 239.525 141.764Z" fill="#1A1919"/>
<path fill-rule="evenodd" clip-rule="evenodd" d="M128.354 177.857C127.755 177.857 127.155 177.643 126.678 177.211L96.1598 149.611C95.1358 148.684 95.0568 147.103 95.9828 146.08C96.9088 145.055 98.4908 144.975 99.5138 145.902L128.267 171.908L185.94 114.191C186.917 113.213 188.5 113.214 189.475 114.19C190.453 115.166 190.453 116.749 189.477 117.725L130.123 177.125C129.636 177.611 128.996 177.857 128.354 177.857Z" fill="#1A1919"/>
</svg>
