<svg width="284" height="284" viewBox="0 0 284 284" xmlns="http://www.w3.org/2000/svg">
    <path d="M141.531 44C87.752 44 44 87.752 44 141.531s43.752 97.531 97.531 97.531c16.935 0 32.873-4.342 46.766-11.965-.851-1.427-1.705-2.859-2.559-4.296-13.143 7.177-28.206 11.261-44.207 11.261-51.022 0-92.531-41.509-92.531-92.531C49 90.509 90.509 49 141.531 49c51.022 0 92.531 41.509 92.531 92.531 0 35.022-19.558 65.56-48.324 81.27.854 1.437 1.708 2.869 2.559 4.296 30.227-16.587 50.765-48.722 50.765-85.566C239.062 87.752 195.31 44 141.531 44z" fill="#1A1918" fill-rule="evenodd"/>
</svg>
