<svg width="284" height="284" viewBox="0 0 284 284" fill="none" xmlns="http://www.w3.org/2000/svg">
<path fill-rule="evenodd" clip-rule="evenodd" d="M233.646 72.6587C223.264 103.719 189.621 112.249 164.088 112.378C180.086 116.288 205.557 112.564 219.919 107.323C195.69 148.491 169.199 160.344 135.083 156.469C147.408 163.865 176.32 160.869 186.447 156.009C152.868 190.847 139.724 195.398 103.544 197.155C81.7843 198.212 69.6383 213.594 60.8193 240.077C55.4714 256.136 45.381 261.184 43 261.088C43 261.088 66.1489 179.098 99.5238 122.503C127.774 74.5978 143.974 58.4368 168.119 47.8097C192.263 37.1826 213.916 48.1122 250.67 43.9042C243.918 56.7319 230.759 69.0578 207.118 75.1196C215.097 76.4074 225.217 76.6673 233.646 72.6587Z" fill="black"/>
</svg>
