<svg width="284" height="284" viewBox="0 0 284 284" xmlns="http://www.w3.org/2000/svg">
    <path d="M233.646 72.659c-10.382 31.06-44.025 39.59-69.558 39.719 15.998 3.91 41.47.186 55.83-5.055-24.228 41.168-50.719 53.02-84.835 49.146 12.325 7.396 41.237 4.4 51.364-.46-33.58 34.838-46.723 39.39-82.903 41.146-21.76 1.057-33.906 16.44-42.725 42.922-5.348 16.06-15.438 21.107-17.819 21.011 0 0 23.149-81.99 56.524-138.585 28.25-47.905 44.45-64.066 68.595-74.693 24.144-10.627 45.797.302 82.551-3.906-6.752 12.828-19.911 25.154-43.552 31.216 7.979 1.287 18.1 1.547 26.528-2.461z" fill="#000" fill-rule="evenodd"/>
</svg>
