<svg width="284" height="284" viewBox="0 0 284 284" xmlns="http://www.w3.org/2000/svg">
    <path d="M206.613 147.132l-56.595 56.597a4.996 4.996 0 0 0 0 7.07 4.998 4.998 0 0 0 7.07 0l65.131-65.131c.244-.252.447-.498.623-.762.084-.128.142-.264.215-.397.084-.153.177-.301.244-.464.07-.167.109-.341.16-.513.041-.14.096-.275.125-.42a5.007 5.007 0 0 0 0-1.959c-.029-.146-.084-.281-.125-.421-.051-.172-.09-.346-.16-.513-.067-.163-.16-.311-.244-.464-.073-.133-.131-.269-.215-.397a4.998 4.998 0 0 0-.602-.736l-65.152-65.157A4.983 4.983 0 0 0 153.553 72c-1.28 0-2.561.488-3.535 1.465a4.996 4.996 0 0 0 0 7.07l56.595 56.597H66a5 5 0 1 0 0 10h140.613z" fill="#1A1918" fill-rule="evenodd"/>
</svg>
