<svg width="284" height="284" viewBox="0 0 284 284" xmlns="http://www.w3.org/2000/svg">
    <g fill="#1A1918" fill-rule="evenodd">
        <path d="M248.172 125.954a5.001 5.001 0 0 0-4.546-2.917h-29.934V58.14a5 5 0 0 0-5-5h-33.31a5 5 0 0 0-5 5v64.897h-29.934a5.001 5.001 0 0 0-3.786 8.265l51.588 59.816a4.996 4.996 0 0 0 3.786 1.734 4.996 4.996 0 0 0 3.786-1.734l51.59-59.816a5 5 0 0 0 .76-5.348M47.839 110.232h72a5 5 0 0 0 0-10h-72a5 5 0 0 0 0 10M47.839 156.471h72a5 5 0 1 0 0-10h-72a5 5 0 1 0 0 10M220.845 210.387h-175c-5.522 0-10 4.48-10 10 0 5.523 4.478 10 10 10h175c5.522 0 10-4.477 10-10 0-5.52-4.478-10-10-10"/>
    </g>
</svg>
