<svg width="284" height="284" viewBox="0 0 284 284" xmlns="http://www.w3.org/2000/svg">
    <g fill="#1A1918" fill-rule="evenodd">
        <path d="M248.172 157.573a5.003 5.003 0 0 1-4.547 2.918h-29.933v64.896a5 5 0 0 1-5 5h-33.31a5 5 0 0 1-5-5V160.49h-29.934a5.002 5.002 0 0 1-3.786-8.266L188.25 92.41a4.995 4.995 0 0 1 3.785-1.734c1.455 0 2.838.632 3.787 1.734l51.59 59.814a5 5 0 0 1 .76 5.348M47.839 173.297h72a5 5 0 1 1 0 10h-72a5 5 0 0 1-5-5 5 5 0 0 1 5-5M47.839 127.057h72a5 5 0 1 1 0 10h-72a5 5 0 0 1-5-5 5 5 0 0 1 5-5M220.844 73.14H45.845c-5.523 0-10-4.478-10-10s4.477-10 10-10h175c5.522 0 10 4.478 10 10s-4.478 10-10 10"/>
    </g>
</svg>
