<svg width="284" height="284" viewBox="0 0 284 284" fill="none" xmlns="http://www.w3.org/2000/svg">
<path fill-rule="evenodd" clip-rule="evenodd" d="M226.877 155.247C228.149 146.763 228.152 138.212 226.884 129.747L242.437 115.637L244 109.819C243.077 106.917 242.037 104.061 240.911 101.33C239.783 98.5913 238.508 95.8327 237.122 93.1329L231.923 90.1291L210.995 91.202C205.934 84.3137 199.916 78.2698 193.048 73.1762L194.116 52.1407L191.127 46.9167C185.812 44.16 180.223 41.8348 174.521 40.0029L168.731 41.574L154.685 57.2089C151.364 56.7077 148.014 56.4116 144.662 56.3047C144.648 60.0106 144.611 63.7225 144.568 67.4373C148.314 67.5677 152.053 67.9659 155.737 68.6621L160.864 66.9244L174.505 51.7396C177.347 52.7694 180.147 53.9344 182.88 55.2269L181.842 75.6573L184.245 80.5312C191.913 85.7965 198.45 92.3631 203.677 100.048L208.527 102.463L228.853 101.42C229.503 102.806 230.117 104.199 230.689 105.585C231.259 106.969 231.806 108.39 232.323 109.834L217.216 123.539L215.485 128.693C217.196 137.837 217.194 147.126 215.478 156.302L217.208 161.455L232.317 175.165C231.293 178.022 230.134 180.836 228.848 183.581L208.518 182.538L203.669 184.953C198.426 192.66 191.889 199.232 184.245 204.481L181.842 209.354L182.881 229.781C181.502 230.434 180.116 231.05 178.736 231.625C177.357 232.198 175.943 232.746 174.507 233.266L160.868 218.084L155.739 216.347C146.71 218.052 137.322 218.049 128.266 216.34L123.137 218.077L109.494 233.262C106.652 232.233 103.853 231.067 101.12 229.776L102.159 209.345L99.7557 204.471C92.0842 199.203 85.5458 192.637 80.3218 184.954L75.4716 182.539L55.1448 183.582C54.4929 182.192 53.8801 180.8 53.3102 179.419C52.7383 178.031 52.1928 176.61 51.6775 175.17L66.7852 161.463L68.5145 156.309C66.8028 147.163 66.8048 137.874 68.5204 128.7L66.7911 123.547L51.6804 109.836C52.7051 106.981 53.8645 104.167 55.1497 101.421L75.4804 102.464L80.3306 100.049C85.576 92.3386 92.1106 85.768 99.7537 80.5205L102.158 75.6465L101.119 55.2201C102.501 54.5669 103.887 53.9501 105.265 53.3764C106.64 52.8037 108.054 52.2555 109.492 51.7347L123.129 66.9165L128.258 68.6543C133.618 67.6422 139.103 67.247 144.568 67.4373C144.611 63.7225 144.648 60.0106 144.662 56.3047C139.529 56.1419 134.385 56.4361 129.309 57.201L115.266 41.5701L109.475 40C106.584 40.9297 103.742 41.9741 101.029 43.1038C98.3084 44.2365 95.5652 45.5163 92.8747 46.9088L89.8826 52.1349L90.9522 73.1664C84.1005 78.2482 78.0841 84.298 73.0124 91.2029L52.0786 90.1291L46.879 93.1329C44.1358 98.4776 41.822 104.093 40.001 109.821L41.5634 115.638L57.122 129.755C55.8494 138.238 55.8475 146.789 57.1161 155.255L41.5624 169.367L40 175.186C40.9173 178.069 41.9547 180.925 43.0858 183.673C44.21 186.4 45.4845 189.156 46.8742 191.867L52.0747 194.873L73.0036 193.8C78.0636 200.686 84.0819 206.73 90.9532 211.825L89.8836 232.861L92.8718 238.085C98.1894 240.843 103.777 243.169 109.48 244.999L115.268 243.427L129.316 227.793C137.722 229.062 146.301 229.063 154.689 227.799L168.734 243.431L174.525 245C177.403 244.075 180.244 243.032 182.97 241.897C185.697 240.763 188.441 239.483 191.126 238.092L194.118 232.865L193.048 211.835C199.901 206.751 205.916 200.703 210.987 193.799L231.918 194.873L237.118 191.87C239.861 186.528 242.175 180.913 243.997 175.18L242.434 169.363L226.877 155.247Z" fill="#1A1919"/>
<path fill-rule="evenodd" clip-rule="evenodd" d="M144.405 83.0615C143.606 83.0293 142.806 83 142 83C141.842 83 141.689 83.0107 141.533 83.0127V88.6613C141.689 88.6593 141.842 88.6495 142 88.6495C142.729 88.6495 143.452 88.6749 144.175 88.7042C172.587 89.8513 195.351 113.311 195.351 141.999C195.351 171.417 171.417 195.35 142 195.35C112.582 195.35 88.6487 171.417 88.6487 141.999C88.6487 112.738 112.33 88.9141 141.533 88.6613V83.0127C109.215 83.2655 83 109.623 83 141.999C83 174.531 109.466 201 142 201C174.532 201 201 174.531 201 141.999C201 110.273 175.826 84.3287 144.405 83.0615Z" fill="#1A1919"/>
</svg>
