<svg width="284" height="284" viewBox="0 0 284 284" xmlns="http://www.w3.org/2000/svg">
    <g fill="#1A1918" fill-rule="evenodd">
        <path d="M141.568 196.155c-29.891 0-54.208-24.317-54.208-54.21 0-29.89 24.317-54.206 54.208-54.206 29.89 0 54.208 24.317 54.208 54.207 0 29.892-24.317 54.209-54.208 54.209"/>
        <path d="M228.542 154.944a87.068 87.068 0 0 0 .007-26.002l15.937-14.388 1.602-5.933a110.587 110.587 0 0 0-3.165-8.656 110.355 110.355 0 0 0-3.883-8.359l-5.327-3.064-21.445 1.095a87.048 87.048 0 0 0-18.39-18.381l1.094-21.45-3.063-5.327a110.57 110.57 0 0 0-17.017-7.05l-5.933 1.602-14.393 15.943a87.776 87.776 0 0 0-12.477-.964v25.266c34.277.281 61.98 28.144 61.98 62.488 0 34.518-27.983 62.501-62.502 62.501-34.519 0-62.5-27.983-62.5-62.501 0-34.519 27.981-62.502 62.5-62.502.175 0 .347.012.522.014V54.01a87.571 87.571 0 0 0-13.526.956l-14.389-15.939-5.935-1.601a111.015 111.015 0 0 0-8.654 3.165 111.69 111.69 0 0 0-8.356 3.88L88.163 49.8l1.096 21.446a87.039 87.039 0 0 0-18.383 18.392l-21.45-1.096-5.329 3.064a110.797 110.797 0 0 0-7.048 17.016l1.601 5.933 15.943 14.395a87.035 87.035 0 0 0-.006 26.002l-15.938 14.39-1.6 5.934c.94 2.94 2.002 5.852 3.161 8.654a111.703 111.703 0 0 0 3.882 8.356l5.33 3.065 21.445-1.094a87.03 87.03 0 0 0 18.393 18.38l-1.097 21.451 3.062 5.326a110.49 110.49 0 0 0 17.02 7.051l5.931-1.603 14.395-15.942a87.715 87.715 0 0 0 26 .006l14.391 15.94 5.935 1.6c2.95-.943 5.86-2.007 8.653-3.164a111.108 111.108 0 0 0 8.358-3.88l3.066-5.33-1.097-21.445a87.052 87.052 0 0 0 18.382-18.391l21.45 1.095 5.327-3.063a110.51 110.51 0 0 0 7.05-17.018l-1.603-5.932-15.94-14.394z"/>
    </g>
</svg>
