<svg width="284" height="284" viewBox="0 0 284 284" xmlns="http://www.w3.org/2000/svg">
    <g fill="#1A1918" fill-rule="evenodd">
        <path d="M228.717 154.944a87.101 87.101 0 0 0 .007-26.002l15.937-14.388 1.602-5.933a110.885 110.885 0 0 0-3.165-8.656 110.536 110.536 0 0 0-3.883-8.359l-5.327-3.063-21.445 1.094a87.048 87.048 0 0 0-18.39-18.381l1.094-21.45-3.063-5.327a110.768 110.768 0 0 0-17.017-7.05l-5.933 1.602-14.393 15.943a87.964 87.964 0 0 0-10.27-.922c-.015 3.779-.052 7.564-.097 11.352 3.84.133 7.67.539 11.445 1.249l5.254-1.772 13.978-15.484a99.219 99.219 0 0 1 8.582 3.556l-1.064 20.833 2.463 4.97a75.861 75.861 0 0 1 19.912 19.901l4.97 2.463 20.828-1.064a98.365 98.365 0 0 1 1.881 4.248 98.106 98.106 0 0 1 1.674 4.332l-15.48 13.975-1.774 5.256a75.864 75.864 0 0 1-.007 28.153l1.773 5.255 15.482 13.98a98.941 98.941 0 0 1-3.554 8.582l-20.833-1.064-4.968 2.463a75.888 75.888 0 0 1-19.904 19.912l-2.463 4.97 1.065 20.829a97.764 97.764 0 0 1-4.247 1.88 99.168 99.168 0 0 1-4.334 1.674l-13.976-15.481-5.256-1.772a76.517 76.517 0 0 1-28.15-.007l-5.257 1.771-13.98 15.485a99.826 99.826 0 0 1-8.58-3.555l1.064-20.834-2.463-4.97a75.839 75.839 0 0 1-19.914-19.901l-4.97-2.463-20.829 1.064a98.762 98.762 0 0 1-1.88-4.245 98.743 98.743 0 0 1-1.673-4.333l15.481-13.977 1.772-5.256a75.886 75.886 0 0 1 .006-28.153l-1.772-5.255-15.484-13.981a99.639 99.639 0 0 1 3.555-8.581l20.833 1.064 4.97-2.463a75.873 75.873 0 0 1 19.903-19.913l2.464-4.97-1.065-20.829a99.294 99.294 0 0 1 4.248-1.88 98.676 98.676 0 0 1 4.332-1.674l13.974 15.481 5.256 1.772a76.298 76.298 0 0 1 16.712-1.241c.045-3.788.082-7.573.097-11.352a87.527 87.527 0 0 0-15.733.914L114.35 39.027l-5.935-1.601a111.425 111.425 0 0 0-8.654 3.165 111.69 111.69 0 0 0-8.356 3.88L88.338 49.8l1.096 21.446a87.039 87.039 0 0 0-18.383 18.392l-21.45-1.095-5.329 3.063a110.766 110.766 0 0 0-7.048 17.017l1.601 5.932 15.943 14.395a87.035 87.035 0 0 0-.006 26.002l-15.938 14.39-1.6 5.934c.94 2.94 2.002 5.852 3.161 8.654a111.703 111.703 0 0 0 3.882 8.356l5.33 3.065 21.445-1.094a87.03 87.03 0 0 0 18.393 18.38l-1.096 21.451 3.062 5.327a110.533 110.533 0 0 0 17.02 7.05l5.93-1.603 14.395-15.942a87.715 87.715 0 0 0 26 .006l14.391 15.94 5.935 1.6c2.95-.943 5.86-2.007 8.653-3.164a111.108 111.108 0 0 0 8.358-3.88l3.066-5.33-1.097-21.445a87.052 87.052 0 0 0 18.382-18.391l21.45 1.095 5.327-3.062a110.563 110.563 0 0 0 7.05-17.019l-1.603-5.932-15.94-14.394z"/>
        <path d="M144.207 81.575a61.014 61.014 0 0 0-2.464-.063c-.161 0-.319.01-.478.013v5.786c.16-.002.317-.012.478-.012.746 0 1.488.026 2.227.056 29.103 1.175 52.422 25.205 52.422 54.59 0 30.135-24.517 54.65-54.65 54.65-30.132 0-54.647-24.515-54.647-54.65 0-29.971 24.257-54.375 54.17-54.634v-5.786c-33.104.259-59.956 27.258-59.956 60.42 0 33.325 27.11 60.438 60.434 60.438 33.322 0 60.435-27.113 60.435-60.437 0-32.497-25.786-59.073-57.971-60.371"/>
    </g>
</svg>
