<svg width="280" height="280" viewBox="0 0 280 280" fill="none" xmlns="http://www.w3.org/2000/svg">
<path fill-rule="evenodd" clip-rule="evenodd" d="M57.0719 69.3401C66.3333 59.726 79.3716 53 94.1635 53C106.145 53 116.596 58.638 124.54 64.8624C131.084 69.9901 136.318 75.8197 139.806 80.179C143.352 75.8263 148.673 69.9935 155.295 64.8624C163.322 58.6429 173.851 53 185.837 53C215.074 53 238 77.7737 238 104.522C238 116.822 236.49 126.216 231.455 135.6C226.569 144.706 218.585 153.355 206.773 164.681C186.267 184.344 154.054 214.009 145.801 221.594C142.381 224.738 137.173 224.753 133.732 221.651C125.255 214.008 91.5836 183.503 73.085 164.545C62.4966 153.693 54.6472 144.748 49.52 135.485C44.2611 125.984 42 116.414 42 104.522C42 91.7289 47.8541 78.9089 57.0719 69.3401ZM65.7142 77.6654C58.3094 85.3521 54 95.2931 54 104.522C54 114.653 55.8683 122.175 60.0189 129.674C64.3012 137.41 71.1415 145.37 81.6738 156.164C98.6298 173.542 128.799 201.016 139.717 210.887C150.317 201.133 179.473 174.233 198.468 156.019C210.277 144.695 216.983 137.191 220.881 129.926C224.63 122.939 226 115.744 226 104.522C226 84.2263 208.273 65 185.837 65C177.616 65 169.651 68.9203 162.645 74.3483C155.699 79.7301 150.274 86.15 147.261 90.1018C143.512 95.0191 135.946 94.9653 132.255 90.0273C129.299 86.073 123.983 79.6708 117.139 74.3082C110.24 68.9032 102.364 65 94.1635 65C83.1188 65 73.0753 70.024 65.7142 77.6654Z" fill="#C4C4C4"/>
</svg>
