<svg width="280" height="280" viewBox="0 0 280 280" fill="none" xmlns="http://www.w3.org/2000/svg">
<path fill-rule="evenodd" clip-rule="evenodd" d="M57.0719 69.3401C66.3333 59.726 79.3716 53 94.1635 53C109.439 53 122.282 62.1523 130.797 70.3021C134.465 73.8128 137.51 77.3095 139.806 80.1791C142.147 77.3049 145.255 73.7952 148.991 70.2715C157.617 62.1366 170.578 53 185.837 53C215.074 53 238 77.7737 238 104.522C238 130.515 225.265 145.661 210.94 160.519C203.734 167.993 186.871 183.787 171.968 197.574C164.482 204.498 157.44 210.963 152.27 215.697C149.684 218.064 147.566 219.998 146.094 221.341C145.358 222.013 144.784 222.536 144.393 222.892L143.797 223.435L143.795 223.437C143.795 223.437 143.795 223.438 139.756 219C135.673 223.397 135.673 223.396 135.673 223.396L135.671 223.394L135.082 222.847C134.695 222.488 134.126 221.959 133.397 221.281C131.94 219.926 129.842 217.974 127.281 215.587C122.158 210.815 115.18 204.304 107.76 197.351C92.9586 183.48 76.2817 167.742 69.1367 160.597C54.6099 146.07 42 128.924 42 104.522C42 91.7289 47.8541 78.9089 57.0719 69.3401ZM139.795 210.843C141.025 209.72 142.498 208.373 144.167 206.846C149.327 202.121 156.353 195.671 163.819 188.765C178.817 174.891 195.387 159.361 202.301 152.19C216.217 137.756 226 125.574 226 104.522C226 84.2263 208.273 65 185.837 65C175.259 65 165.179 71.5 157.224 79.0018C153.35 82.6549 150.213 86.3274 148.043 89.0917C146.961 90.4691 146.13 91.6086 145.577 92.391C145.301 92.7819 145.095 93.0827 144.963 93.2784C144.897 93.3762 144.85 93.4476 144.821 93.4908L144.793 93.5337L144.79 93.538L144.789 93.5395L139.695 101.41L134.687 93.4838L134.686 93.4822L134.685 93.4803L134.684 93.4788L134.684 93.4778L134.657 93.4359C134.629 93.3931 134.583 93.322 134.519 93.2245C134.39 93.0296 134.189 92.7296 133.92 92.3395C133.381 91.5587 132.569 90.421 131.51 89.0456C129.386 86.2852 126.31 82.6182 122.5 78.9712C114.678 71.4844 104.725 65 94.1635 65C83.1188 65 73.0753 70.024 65.7142 77.6654C58.3094 85.3521 54 95.2931 54 104.522C54 124.164 63.9076 138.397 77.622 152.112C84.5976 159.087 101.109 174.672 115.966 188.594C123.375 195.537 130.344 202.04 135.461 206.807C137.115 208.349 138.576 209.709 139.795 210.843Z" fill="#C4C4C4"/>
<path d="M139.756 219L135.673 223.396L139.715 227.15L143.795 223.437L139.756 219Z" fill="#C4C4C4"/>
</svg>
