<svg width="280" height="280" viewBox="0 0 280 280" fill="none" xmlns="http://www.w3.org/2000/svg">
<path d="M94.1635 55C114.345 55 130.817 74.0825 137.061 82.4351C138.372 84.1892 141.162 84.2054 142.49 82.4639C148.846 74.1264 165.631 55 185.837 55C211.673 55 232 77 232 100.522C232 124.044 226.241 133.7 202.621 156.35C182.168 175.963 150 205.585 141.741 213.177C140.604 214.222 138.896 214.228 137.75 213.194C129.239 205.521 95.7185 175.149 77.3794 156.354C56.2587 134.709 48 122.544 48 100.522C48 78.5 68.3269 55 94.1635 55Z" fill="#C4C4C4"/>
</svg>
