<svg width="280" height="280" viewBox="0 0 280 280" xmlns="http://www.w3.org/2000/svg">
    <path d="M149.286 66.202C160.264 54.887 172.852 48 186.898 48c28.296 0 51.689 24.51 51.689 53.317 0 28.643-17.246 59.523-45.344 89.166-20.466 21.592-46.434 41.315-53.45 41.315-7.015 0-32.983-19.723-53.45-41.315C58.247 160.84 41 129.96 41 101.317 41 72.511 64.393 48 92.689 48c14.116 0 26.723 6.888 37.675 18.206a91.523 91.523 0 0 1 9.442 11.544c2.74-3.938 5.904-7.861 9.48-11.548zm-14.188 20.832a73.67 73.67 0 0 0-2.302-3.593c-2.548-3.745-5.528-7.492-8.9-10.976C114.485 62.738 103.983 57 92.69 57 69.459 57 50 77.39 50 101.317c0 25.814 16.214 54.846 42.876 82.975 10.161 10.72 21.293 20.648 31.49 28.393 4.327 3.287 8.261 6 11.368 7.867 1.417.852 2.615 1.498 3.52 1.908.537.242.847.338.539.338-.308 0 .003-.096.539-.338.906-.41 2.103-1.056 3.52-1.908 3.107-1.867 7.041-4.58 11.37-7.867 10.196-7.745 21.328-17.673 31.49-28.393 26.661-28.129 42.875-57.16 42.875-82.975 0-23.927-19.46-44.317-42.689-44.317-11.222 0-21.713 5.74-31.152 15.469-3.382 3.486-6.376 7.235-8.94 10.982a74.56 74.56 0 0 0-2.32 3.596c-.223.37-.414.697-.572.974-.089.156-4.139 7.635-4.139 7.635l-3.947-7.358a35.599 35.599 0 0 0-.73-1.264z" fill-rule="nonzero" fill="#000"/>
</svg>
