<svg width="280" height="280" viewBox="0 0 280 280" xmlns="http://www.w3.org/2000/svg">
    <path d="M149.286 66.202C160.264 54.887 172.852 48 186.898 48c28.296 0 51.689 24.51 51.689 53.317 0 28.643-17.246 59.523-45.344 89.166-20.466 21.592-46.434 41.315-53.45 41.315-7.015 0-32.983-19.723-53.45-41.315C58.247 160.84 41 129.96 41 101.317 41 72.511 64.393 48 92.689 48c14.116 0 26.723 6.888 37.675 18.206a91.523 91.523 0 0 1 9.442 11.544c2.74-3.938 5.904-7.861 9.48-11.548z" fill-rule="nonzero" fill="#000"/>
</svg>
