<svg width="280" height="280" viewBox="0 0 280 280" fill="none" xmlns="http://www.w3.org/2000/svg">
<path d="M52.5924 114.475C49.6932 116.75 48 120.231 48 123.916V219.997C48 226.624 53.3726 231.997 60 231.997H101.73C108.357 231.997 113.73 226.624 113.73 219.997V172.288C113.73 165.661 119.103 160.288 125.73 160.288H154.912C161.54 160.288 166.912 165.661 166.912 172.288V219.997C166.912 226.624 172.285 231.997 178.912 231.997H220.642C227.27 231.997 232.642 226.624 232.642 219.997V123.902C232.642 120.225 230.956 116.751 228.068 114.475L147.911 51.3375C143.562 47.9118 137.434 47.906 133.078 51.3235L52.5924 114.475Z" fill="#C4C4C4"/>
</svg>
