<svg width="280" height="280" viewBox="0 0 280 280" xmlns="http://www.w3.org/2000/svg">
    <path d="M118.23 235.997a4.5 4.5 0 0 1-4.5 4.5H48a4.5 4.5 0 0 1-4.5-4.5V118.079a4.5 4.5 0 0 1 1.684-3.51l92.32-74.079a4.5 4.5 0 0 1 5.633 0l92.321 74.079a4.5 4.5 0 0 1 1.684 3.51v117.918a4.5 4.5 0 0 1-4.5 4.5h-65.73a4.5 4.5 0 0 1-4.5-4.5v-71.209H118.23v71.209zm-65.73-4.5h56.73v-71.209a4.5 4.5 0 0 1 4.5-4.5h53.182a4.5 4.5 0 0 1 4.5 4.5v71.209h56.73v-111.26l-87.82-70.467L52.5 120.237v111.26z" fill-rule="nonzero" fill="#000"/>
</svg>
