<svg width="280" height="280" viewBox="0 0 280 280" fill="none" xmlns="http://www.w3.org/2000/svg">
<path fill-rule="evenodd" clip-rule="evenodd" d="M129.374 46.6031C135.908 41.4769 145.1 41.4855 151.624 46.6241L231.78 109.762C236.113 113.175 238.642 118.386 238.642 123.902V219.997C238.642 229.938 230.583 237.997 220.642 237.997H178.912C168.971 237.997 160.912 229.938 160.912 219.997V172.288C160.912 168.974 158.226 166.288 154.912 166.288H125.73C122.416 166.288 119.73 168.974 119.73 172.288V219.997C119.73 229.938 111.671 237.997 101.73 237.997H60C50.0589 237.997 42 229.938 42 219.997V123.916C42 118.388 44.5398 113.167 48.8887 109.755L129.374 46.6031ZM144.198 56.0509C142.024 54.338 138.96 54.3351 136.782 56.0439L56.2962 119.196C54.8466 120.333 54 122.073 54 123.916V219.997C54 223.311 56.6863 225.997 60 225.997H101.73C105.044 225.997 107.73 223.311 107.73 219.997V172.288C107.73 162.347 115.789 154.288 125.73 154.288H154.912C164.853 154.288 172.912 162.347 172.912 172.288V219.997C172.912 223.311 175.599 225.997 178.912 225.997H220.642C223.956 225.997 226.642 223.311 226.642 219.997V123.902C226.642 122.063 225.799 120.326 224.355 119.189L144.198 56.0509Z" fill="#C4C4C4"/>
</svg>
