<svg width="280" height="280" viewBox="0 0 280 280" fill="none" xmlns="http://www.w3.org/2000/svg">
<path d="M140 40.5C85.0477 40.5 40.5 85.0477 40.5 140C40.5 194.952 85.0477 239.5 140 239.5V196.271C138.749 196.995 137.558 197.649 136.43 198.232C133.912 199.579 131.483 200.268 129.229 200.268C127.153 200.268 125.354 199.418 123.882 197.742C122.457 196.117 121.733 193.823 121.733 190.924C121.733 187.051 123.353 179.602 126.683 168.152C133.055 146.395 136.286 133.164 136.286 128.822C136.286 126.977 135.606 126.977 135.008 126.977C134.242 126.977 131.349 127.679 121.075 134.191L119.808 134.994L116.651 129.155L117.681 128.441C127.088 121.926 134.486 117.43 140 114.888V40.5Z" fill="black"/>
<path d="M140 178.895C139.606 181.2 139.409 182.962 139.409 184.176C139.409 184.96 139.557 185.37 140 185.554V178.895Z" fill="black"/>
<path fill-rule="evenodd" clip-rule="evenodd" d="M140 239.5C194.952 239.5 239.5 194.952 239.5 140C239.5 85.0477 194.952 40.5 140 40.5C140 40.5 140 40.5 140 40.5L140 114.888C143.627 113.216 146.44 112.389 148.473 112.389C150.313 112.389 151.785 112.909 152.848 113.934C153.926 114.976 154.472 116.449 154.472 118.316C154.472 122.069 153.065 128.79 150.17 138.862C144.697 157.923 141.292 171.331 140 178.896V185.554C140.216 185.644 140.501 185.68 140.873 185.68C141.956 185.68 145.227 184.712 154.97 178.227L156.234 177.385L159.409 183.116L158.428 183.846C151.326 189.127 145.148 193.292 140 196.271L140 239.5ZM160.728 92.8675C160.728 98.5806 156.097 103.211 150.385 103.211C144.672 103.211 140.041 98.5806 140.041 92.8675C140.041 87.1545 144.672 82.524 150.385 82.524C156.097 82.524 160.728 87.1545 160.728 92.8675Z" fill="black"/>
</svg>
