<svg width="280" height="280" viewBox="0 0 280 280" xmlns="http://www.w3.org/2000/svg">
    <g fill="none" fill-rule="evenodd">
        <g fill="#1A1918">
            <path d="M156.234 177.385l-1.264.842c-9.743 6.485-13.014 7.453-14.097 7.453-1.136 0-1.464-.338-1.464-1.504 0-5.2 3.62-20.446 10.76-45.314 2.896-10.072 4.303-16.793 4.303-20.546 0-1.867-.546-3.34-1.624-4.382-1.063-1.025-2.535-1.545-4.375-1.545-5.125 0-15.197 5.25-30.791 16.052l-1.03.714 3.156 5.839 1.267-.803c10.274-6.512 13.167-7.214 13.933-7.214.598 0 1.278 0 1.278 1.845 0 4.342-3.231 17.573-9.603 39.33-3.33 11.45-4.95 18.899-4.95 22.772 0 2.9.724 5.193 2.149 6.818 1.472 1.676 3.271 2.526 5.347 2.526 2.254 0 4.683-.689 7.201-2.036 5.77-2.981 13.17-7.821 21.998-14.386l.981-.73-3.175-5.731zM160.728 92.868c0 5.713-4.631 10.343-10.343 10.343-5.713 0-10.344-4.63-10.344-10.343s4.63-10.344 10.344-10.344c5.712 0 10.343 4.63 10.343 10.344"/>
        </g>
        <path d="M140 238.5c-54.4 0-98.5-44.1-98.5-98.5S85.6 41.5 140 41.5s98.5 44.1 98.5 98.5-44.1 98.5-98.5 98.5zm0-9c49.43 0 89.5-40.07 89.5-89.5S189.43 50.5 140 50.5 50.5 90.57 50.5 140s40.07 89.5 89.5 89.5z" fill="#000" fill-rule="nonzero"/>
    </g>
</svg>
