<svg width="284" height="284" viewBox="0 0 284 284" xmlns="http://www.w3.org/2000/svg">
    <g fill="#1A1918" fill-rule="evenodd">
        <path d="M117.676 92.001l-23.105-.28c.572-15.037.772-16.58.689-19.85-.069-10.235-5.386-12.448-9.835-12.5l-.157-.002c-4.207 0-9.248 2.098-9.369 12.093-.086 7.201-.34 9.65-.697 20.024l-9.039-.109h-.291c-8.848 0-10.766 5.027-10.817 9.246-.055 4.554 1.787 10.006 10.874 10.117l8.301.1-.057.756c-1.503 19.925-2.495 33.088-4.664 42.94-4.081 18.426-9.753 29.391-18.834 44.425-2.728 4.545-3.107 6.081-3.118 6.983-.056 4.606 1.838 10.24 11.176 10.928l.134.01.135-.015c2.85-.304 5.806-3.13 9.305-8.9 8.841-14.65 14.494-25.577 18.774-44.308 3.182-13.807 4.706-31.265 6.315-52.587l13.541.164c3.658.044 5.899 1.082 6.847 3.174 1.351 4.301 1.898 12.477 1.625 24.301-.567 22.545-.391 31.466-3.116 45.728-3.443 17.782-6.95 19.756-8.138 19.875-1.691-.416-3.679-1.727-5.925-3.907-2.203-2.092-3.928-3.074-5.428-3.092h-.226c-6.649 0-10.207 3.617-10.29 10.464-.025 2.032 1.139 4.3 3.556 6.93l.112.111c5.93 5.228 12.011 8.276 18.072 9.057l.151.02.152-.01c6.649-.499 12.096-3.783 16.188-9.76 2.58-3.77 4.961-9.5 7.278-17.514 4.583-15.638 5.658-27.96 6.164-57.242.351-17.896-.387-29.412-2.255-35.195-1.676-7.874-6.526-12.084-14.028-12.175M236.185 119.986c-.417-4.304-2.761-9.441-11.561-9.472l-16.482-.06.088-38.723c.032-9.422-5.172-11.418-9.594-11.433-4.44 0-9.738 1.97-9.771 11.367l-.087 38.722-30.717-.108c-9.51 0-11.523 5.187-11.538 9.539-.012 3.22 1.013 5.705 3.046 7.385 1.945 1.606 4.81 2.427 8.519 2.44l30.622.109-.004 1.328c-.094 26.685-1.898 39.548-7.818 53.349-5.057 11.517-10.8 17.982-19.814 22.312-3.887 1.825-4.712 4.7-4.72 6.794-.023 6.6 3.662 10.347 10.657 10.828l.209.015.204-.043c2.053-.434 4.126-1.311 6.18-2.62 13.143-8.651 20.979-18.051 26.204-31.445 6.136-16.107 8.165-31.41 8.263-59.121l.005-1.33 16.557.06c8.743 0 11.108-5.22 11.55-9.597l.017-.148-.015-.148z"/>
    </g>
</svg>
