<svg width="280" height="280" viewBox="0 0 280 280" fill="none" xmlns="http://www.w3.org/2000/svg">
<path fill-rule="evenodd" clip-rule="evenodd" d="M82.5928 61.2178C88.443 61.2178 93.1856 56.468 93.1856 50.6089C93.1856 44.7498 88.443 40 82.5928 40C76.7426 40 72 44.7498 72 50.6089C72 56.468 76.7426 61.2178 82.5928 61.2178Z" fill="black"/>
<path d="M116.421 54.7739H207.926C210.411 54.7739 212.426 52.7592 212.426 50.2739C212.426 47.7886 210.411 45.7739 207.926 45.7739H116.421C113.936 45.7739 111.921 47.7886 111.921 50.2739C111.921 52.7592 113.936 54.7739 116.421 54.7739Z" fill="black"/>
<path fill-rule="evenodd" clip-rule="evenodd" d="M82.5928 117.377C88.443 117.377 93.1856 112.627 93.1856 106.768C93.1856 100.909 88.443 96.1593 82.5928 96.1593C76.7426 96.1593 72 100.909 72 106.768C72 112.627 76.7426 117.377 82.5928 117.377Z" fill="black"/>
<path d="M116.33 112.917H207.834C210.32 112.917 212.334 110.902 212.334 108.417C212.334 105.932 210.32 103.917 207.834 103.917H116.33C113.844 103.917 111.83 105.932 111.83 108.417C111.83 110.902 113.844 112.917 116.33 112.917Z" fill="black"/>
<path fill-rule="evenodd" clip-rule="evenodd" d="M82.5928 172.962C88.443 172.962 93.1856 168.212 93.1856 162.353C93.1856 156.493 88.443 151.744 82.5928 151.744C76.7426 151.744 72 156.493 72 162.353C72 168.212 76.7426 172.962 82.5928 172.962Z" fill="black"/>
<path d="M116.421 167.226H207.926C210.411 167.226 212.426 165.211 212.426 162.726C212.426 160.241 210.411 158.226 207.926 158.226H116.421C113.936 158.226 111.921 160.241 111.921 162.726C111.921 165.211 113.936 167.226 116.421 167.226Z" fill="black"/>
<path d="M136.467 254.077C138.244 255.974 141.256 255.974 143.033 254.077L160.444 235.5H235.5C237.985 235.5 240 233.485 240 231C240 228.515 237.985 226.5 235.5 226.5H158.494C157.25 226.5 156.061 227.015 155.21 227.923L139.75 244.419L124.29 227.923C123.439 227.015 122.25 226.5 121.006 226.5H44C41.5147 226.5 39.5 228.515 39.5 231C39.5 233.485 41.5147 235.5 44 235.5H119.056L136.467 254.077Z" fill="#C4C4C4"/>
</svg>
