<svg width="280" height="280" viewBox="0 0 280 280" fill="none" xmlns="http://www.w3.org/2000/svg">
<path fill-rule="evenodd" clip-rule="evenodd" d="M82.5928 62.2178C88.443 62.2178 93.1856 57.468 93.1856 51.6089C93.1856 45.7498 88.443 41 82.5928 41C76.7426 41 72 45.7498 72 51.6089C72 57.468 76.7426 62.2178 82.5928 62.2178Z" fill="black"/>
<path d="M116.012 60H207.516C211.934 60 215.516 56.4183 215.516 52C215.516 47.5817 211.934 44 207.516 44H116.012C111.593 44 108.012 47.5817 108.012 52C108.012 56.4183 111.593 60 116.012 60Z" fill="black"/>
<path fill-rule="evenodd" clip-rule="evenodd" d="M82.5928 118.218C88.443 118.218 93.1856 113.468 93.1856 107.609C93.1856 101.75 88.443 97 82.5928 97C76.7426 97 72 101.75 72 107.609C72 113.468 76.7426 118.218 82.5928 118.218Z" fill="black"/>
<path d="M116.012 116H207.516C211.934 116 215.516 112.418 215.516 108C215.516 103.582 211.934 100 207.516 100H116.012C111.593 100 108.012 103.582 108.012 108C108.012 112.418 111.593 116 116.012 116Z" fill="black"/>
<path fill-rule="evenodd" clip-rule="evenodd" d="M82.5928 174.218C88.443 174.218 93.1856 169.468 93.1856 163.609C93.1856 157.75 88.443 153 82.5928 153C76.7426 153 72 157.75 72 163.609C72 169.468 76.7426 174.218 82.5928 174.218Z" fill="black"/>
<path d="M116.012 171H207.516C211.934 171 215.516 167.418 215.516 163C215.516 158.582 211.934 155 207.516 155H116.012C111.593 155 108.012 158.582 108.012 163C108.012 167.418 111.593 171 116.012 171Z" fill="black"/>
<path d="M136.467 254.077C138.244 255.974 141.256 255.974 143.033 254.077L160.444 235.5H235.5C237.985 235.5 240 233.485 240 231C240 228.515 237.985 226.5 235.5 226.5H158.494C157.25 226.5 156.061 227.015 155.21 227.923L139.75 244.419L124.29 227.923C123.439 227.015 122.25 226.5 121.006 226.5H44C41.5147 226.5 39.5 228.515 39.5 231C39.5 233.485 41.5147 235.5 44 235.5H119.056L136.467 254.077Z" fill="#C4C4C4"/>
</svg>
