<svg width="280" height="280" viewBox="0 0 280 280" fill="none" xmlns="http://www.w3.org/2000/svg">
<path d="M72 65.9728C72 74.2421 65.2843 80.9457 57 80.9457C48.7157 80.9457 42 74.2421 42 65.9728C42 57.7036 48.7157 51 57 51C65.2843 51 72 57.7036 72 65.9728Z" fill="#C4C4C4"/>
<path d="M72 140.173C72 148.442 65.2843 155.146 57 155.146C48.7157 155.146 42 148.442 42 140.173C42 131.904 48.7157 125.2 57 125.2C65.2843 125.2 72 131.904 72 140.173Z" fill="#C4C4C4"/>
<path d="M57 229.946C65.2843 229.946 72 223.242 72 214.973C72 206.704 65.2843 200 57 200C48.7157 200 42 206.704 42 214.973C42 223.242 48.7157 229.946 57 229.946Z" fill="#C4C4C4"/>
<path d="M105.016 57.5C100.598 57.5 97.0159 61.0817 97.0159 65.5C97.0159 69.9183 100.598 73.5 105.016 73.5H231.808C236.227 73.5 239.808 69.9183 239.808 65.5C239.808 61.0817 236.227 57.5 231.808 57.5H105.016Z" fill="#C4C4C4"/>
<path d="M97.0159 142.5C97.0159 138.082 100.598 134.5 105.016 134.5H231.808C236.227 134.5 239.808 138.082 239.808 142.5C239.808 146.918 236.227 150.5 231.808 150.5H105.016C100.598 150.5 97.0159 146.918 97.0159 142.5Z" fill="#C4C4C4"/>
<path d="M105.016 207.5C100.598 207.5 97.0159 211.082 97.0159 215.5C97.0159 219.918 100.598 223.5 105.016 223.5H231.808C236.227 223.5 239.808 219.918 239.808 215.5C239.808 211.082 236.227 207.5 231.808 207.5H105.016Z" fill="#C4C4C4"/>
</svg>
