<svg width="280" height="280" viewBox="0 0 280 280" fill="none" xmlns="http://www.w3.org/2000/svg">
<path d="M72 65.9728C72 74.2421 65.2843 80.9457 57 80.9457C48.7157 80.9457 42 74.2421 42 65.9728C42 57.7036 48.7157 51 57 51C65.2843 51 72 57.7036 72 65.9728Z" fill="#C4C4C4"/>
<path d="M72 140.173C72 148.442 65.2843 155.146 57 155.146C48.7157 155.146 42 148.442 42 140.173C42 131.904 48.7157 125.2 57 125.2C65.2843 125.2 72 131.904 72 140.173Z" fill="#C4C4C4"/>
<path d="M57 229.946C65.2843 229.946 72 223.242 72 214.973C72 206.704 65.2843 200 57 200C48.7157 200 42 206.704 42 214.973C42 223.242 48.7157 229.946 57 229.946Z" fill="#C4C4C4"/>
<path d="M105.016 59.5C101.702 59.5 99.0159 62.1863 99.0159 65.5C99.0159 68.8137 101.702 71.5 105.016 71.5H231.808C235.122 71.5 237.808 68.8137 237.808 65.5C237.808 62.1863 235.122 59.5 231.808 59.5H105.016Z" fill="#C4C4C4"/>
<path d="M99.0159 142.5C99.0159 139.186 101.702 136.5 105.016 136.5H231.808C235.122 136.5 237.808 139.186 237.808 142.5C237.808 145.814 235.122 148.5 231.808 148.5H105.016C101.702 148.5 99.0159 145.814 99.0159 142.5Z" fill="#C4C4C4"/>
<path d="M105.016 209.5C101.702 209.5 99.0159 212.186 99.0159 215.5C99.0159 218.814 101.702 221.5 105.016 221.5H231.808C235.122 221.5 237.808 218.814 237.808 215.5C237.808 212.186 235.122 209.5 231.808 209.5H105.016Z" fill="#C4C4C4"/>
</svg>
