<svg width="280" height="280" viewBox="0 0 280 280" xmlns="http://www.w3.org/2000/svg">
    <g fill-rule="nonzero" fill="#000">
        <path d="M63.411 171.27h153.247V56.416H63.411V171.27zM55.443 53.313c0-2.692 2.18-4.87 4.871-4.87h159.442a4.872 4.872 0 0 1 4.871 4.87v121.06c0 2.692-2.18 4.87-4.871 4.87H60.314a4.872 4.872 0 0 1-4.871-4.87V53.313z"/>
        <path d="M64.647 65.321a3.983 3.983 0 0 0-5.609.54 3.988 3.988 0 0 0 .54 5.612l77.922 64.28a3.983 3.983 0 0 0 5.07 0l77.922-64.28a3.988 3.988 0 0 0 .54-5.612 3.983 3.983 0 0 0-5.61-.54l-75.387 62.189L64.647 65.32z"/>
        <g>
            <path d="M136.467 254.077a4.5 4.5 0 0 0 6.566 0l17.41-18.577H235.5a4.5 4.5 0 0 0 0-9h-77.006a4.5 4.5 0 0 0-3.284 1.423l-15.46 16.496-15.46-16.496a4.5 4.5 0 0 0-3.284-1.423H44a4.5 4.5 0 0 0 0 9h75.056l17.41 18.577z"/>
        </g>
    </g>
</svg>
