<svg width="280" height="280" viewBox="0 0 280 280" fill="none" xmlns="http://www.w3.org/2000/svg">
<path d="M140 65H65C52.8497 65 43 74.8497 43 87V193.646C43 205.796 52.8497 215.646 65 215.646H140V203.646H65C59.4772 203.646 55 199.168 55 193.646V99.2466L136.223 166.211C137.32 167.116 138.659 167.573 140 167.582V153.773L55.8496 84.3945C55.714 84.2827 55.575 84.1779 55.433 84.08C56.6824 79.9816 60.493 77 65 77H140V65Z" fill="black"/>
<path d="M140 215.646H215.079C227.229 215.646 237.079 205.796 237.079 193.646V87C237.079 74.8497 227.229 65 215.079 65H140V77H215.079C219.586 77 223.396 79.9816 224.646 84.08C224.504 84.1779 224.365 84.2827 224.229 84.3945L140.039 153.806L140 153.773V167.582C141.367 167.591 142.737 167.134 143.856 166.211L225.079 99.2466V193.646C225.079 199.168 220.602 203.646 215.079 203.646H140V215.646Z" fill="black"/>
</svg>
