<svg width="280" height="280" viewBox="0 0 280 280" fill="none" xmlns="http://www.w3.org/2000/svg">
<path d="M60.314 48.4429C57.6229 48.4429 55.4427 50.6196 55.4427 53.3104V56.1992C55.5742 56.2856 55.7019 56.3806 55.8252 56.4845L140.035 127.42L224.245 56.4845C224.368 56.3806 224.496 56.2856 224.627 56.1992V53.3104C224.627 50.6206 222.443 48.4429 219.756 48.4429H60.314Z" fill="black"/>
<path d="M224.627 66.5816L142.602 135.677C141.119 136.927 138.951 136.927 137.468 135.677L55.4427 66.5816V174.303C55.4427 176.993 57.6269 179.171 60.314 179.171H219.756C222.447 179.171 224.627 176.994 224.627 174.303V66.5816Z" fill="black"/>
<path d="M136.467 254.077C138.244 255.974 141.256 255.974 143.033 254.077L160.444 235.5H235.5C237.985 235.5 240 233.485 240 231C240 228.515 237.985 226.5 235.5 226.5H158.494C157.25 226.5 156.061 227.015 155.21 227.923L139.75 244.419L124.29 227.923C123.439 227.015 122.25 226.5 121.006 226.5H44C41.5147 226.5 39.5 228.515 39.5 231C39.5 233.485 41.5147 235.5 44 235.5H119.056L136.467 254.077Z" fill="#C4C4C4"/>
</svg>
