<svg width="280" height="280" viewBox="0 0 280 280" xmlns="http://www.w3.org/2000/svg">
    <g fill-rule="nonzero" fill="#000">
        <path d="M224.627 56.199c-.131.086-.26.181-.382.285l-84.21 70.936-84.21-70.936a4.025 4.025 0 0 0-.382-.285V53.31c0-2.69 2.18-4.867 4.871-4.867h159.442a4.87 4.87 0 0 1 4.871 4.867V56.2zm0 10.382v107.722c0 2.69-2.18 4.868-4.871 4.868H60.314a4.87 4.87 0 0 1-4.871-4.868V66.581l82.025 69.096a3.984 3.984 0 0 0 5.134 0l82.025-69.096zM136.467 254.077a4.5 4.5 0 0 0 6.566 0l17.41-18.577H235.5a4.5 4.5 0 0 0 0-9h-77.006a4.5 4.5 0 0 0-3.284 1.423l-15.46 16.496-15.46-16.496a4.5 4.5 0 0 0-3.284-1.423H44a4.5 4.5 0 0 0 0 9h75.056l17.41 18.577z"/>
    </g>
</svg>
