<svg width="284" height="284" viewBox="0 0 284 284" xmlns="http://www.w3.org/2000/svg">
    <g fill="#1A1918" fill-rule="evenodd">
        <path d="M181.252 130.75c10.47 0 12.425 5.165 12.425 8.795v.977c-10.411-.06-19.285 1.493-26.02 4.694l11.435 11.434c3.599-2.15 9.048-2.944 15.283-2.866v7.399c0 1.257-.14 2.513-.42 3.629-.496 1.54-1.371 2.97-2.522 4.18l17.04 17.04h7.54c-.698-3.77-.978-10.052-.978-16.612v-23.732c0-16.054-7.26-29.456-30.014-29.456-12.424 0-21.777 3.35-26.524 6.003l3.909 13.68c4.468-2.792 11.866-5.165 18.846-5.165"/>
        <path d="M208.362 46.305c-6.106 4.422-12.17 8.882-17.974 13.662 27.891 16.6 46.623 47.05 46.623 81.796 0 22.076-7.56 42.417-20.226 58.576L83.335 66.89C97.86 55.506 115.753 48.23 135.26 46.88a95.851 95.851 0 0 1 6.634-.235c17.701 0 34.285 4.866 48.495 13.322 5.803-4.78 11.868-9.24 17.974-13.662-18.843-13.145-41.753-20.86-66.469-20.86-.38 0-.757.011-1.137.014C77.04 26.07 25.573 77.903 25.573 141.763c0 28.498 10.255 54.598 27.267 74.824 3.771-6.588 7.925-13.024 11.55-19.74-11.088-15.553-17.617-34.57-17.617-55.084 0-20.452 6.492-39.415 17.52-54.942l132.544 132.546c-15.528 11.026-34.493 17.515-54.944 17.515-31.936 0-60.246-15.82-77.504-40.035-3.624 6.716-7.778 13.152-11.549 19.74 21.338 25.37 53.31 41.495 89.053 41.495 64.24 0 116.318-52.077 116.318-116.319 0-39.524-19.719-74.438-49.849-95.458"/>
        <polygon points="129.1186 107.9393 125.0326 94.7613 115.9406 94.7613"/>
        <polygon points="117.4401 145.9659 99.1721 145.9659 103.1651 131.6909 88.4491 116.9749 67.3421 186.0319 89.4001 186.0319 96.1001 161.8809 123.0431 161.8809 130.3021 186.0319 153.1971 186.0319 151.2601 179.7859"/>
    </g>
</svg>
