<svg width="284" height="284" viewBox="0 0 284 284" xmlns="http://www.w3.org/2000/svg">
    <g fill="#1A1918" fill-rule="evenodd">
        <polygon points="198.3623 175.1648 198.3623 133.9158 178.6443 152.2718 178.6443 155.4468"/>
        <path d="M137.447 165.284H122.51v-14.937l-6.25-6.251c-.222.17-.446.354-.675.556l-27.881 25.63c-1.386 1.154-2.078 2.539-2.078 4.157 0 1.616.691 3 2.078 4.155l27.88 25.63c1.965 1.733 3.61 2.309 4.935 1.733 1.33-.58 1.991-2.08 1.991-4.503v-17.861h33.246l-18.309-18.31z"/>
        <path d="M204.944 51.708c-5.76 4.172-11.482 8.38-16.957 12.89 26.313 15.66 43.984 44.385 43.984 77.165 0 20.826-7.132 40.016-19.081 55.26L86.994 71.127c13.703-10.739 30.583-17.603 48.985-18.877a90.679 90.679 0 0 1 6.258-.22c16.699 0 32.345 4.59 45.75 12.567 5.475-4.51 11.197-8.717 16.957-12.889-17.776-12.4-39.39-19.679-62.707-19.679-.358 0-.714.01-1.072.013-60.11.576-108.663 49.475-108.663 109.721 0 26.885 9.674 51.507 25.723 70.588 3.558-6.215 7.477-12.286 10.895-18.622-10.46-14.673-16.618-32.614-16.618-51.966 0-19.295 6.124-37.184 16.527-51.832L194.07 214.974c-14.65 10.402-32.54 16.524-51.834 16.524-30.128 0-56.835-14.925-73.117-37.769-3.418 6.336-7.337 12.407-10.895 18.622 20.13 23.933 50.292 39.147 84.012 39.147 60.604 0 109.734-49.13 109.734-109.735 0-37.287-18.602-70.225-47.027-90.055"/>
        <path d="M141.442 118.244h20.52v17.861c0 1.48.249 2.611.743 3.402l.915.915c.108.066.214.134.332.185 1.327.58 2.97 0 4.936-1.73l27.88-25.632c1.387-1.153 2.079-2.538 2.079-4.156 0-1.616-.692-3-2.078-4.155l-27.881-25.63c-1.965-1.733-3.61-2.309-4.936-1.733-1.33.58-1.99 2.08-1.99 4.503v17.861h-38.83l18.31 18.31z"/>
        <polygon points="86.11 113.9459 86.11 149.6129 104.581 132.4169"/>
    </g>
</svg>
