<svg width="284" height="284" viewBox="0 0 284 284" xmlns="http://www.w3.org/2000/svg">
    <g fill="#1A1918" fill-rule="evenodd">
        <path d="M142.236 25.445c-64.24 0-116.318 52.078-116.318 116.318 0 45.96 26.657 85.688 65.35 104.581a1473.563 1473.563 0 0 0 12.67-17.523c-33.429-14.763-56.82-48.228-56.82-87.058 0-20.452 6.49-39.416 17.516-54.944l132.547 132.547c-15.528 11.027-34.493 17.516-54.945 17.516-13.619 0-26.575-2.883-38.299-8.06a1473.563 1473.563 0 0 1-12.669 17.522c15.392 7.515 32.686 11.738 50.968 11.738 51.78 0 95.65-33.837 110.723-80.603-6.836-1.869-13.772-3.485-20.807-4.698a95.077 95.077 0 0 1-15.023 27.557L83.661 66.871c16.158-12.666 36.5-20.226 58.575-20.226 52.45 0 95.118 42.67 95.118 95.118a94.699 94.699 0 0 1-5.202 31.018c7.035 1.213 13.971 2.83 20.807 4.698a116.215 116.215 0 0 0 5.595-35.716c0-64.24-52.077-116.318-116.318-116.318"/>
        <path d="M186.164 156.453h-6.925l12.616 12.616a7.56 7.56 0 0 0 1.905-5.02 7.596 7.596 0 0 0-7.596-7.596M137.862 115.076l7.41-31.406a7.594 7.594 0 0 0-5.647-9.138 7.597 7.597 0 0 0-9.138 5.65l-5.254 22.266 12.63 12.629zM154.485 131.7h.024l-.004.02 12.63 12.63 2.985-12.65h25.936c4.196 0 7.596-3.4 7.596-7.596 0-4.195-3.4-7.596-7.596-7.596h-22.35l7.748-32.838a7.596 7.596 0 1 0-14.787-3.488l-8.573 36.326h-18.8l15.191 15.192zM144.775 172.957l-7.681 32.553a7.598 7.598 0 0 0 7.399 9.341 7.599 7.599 0 0 0 7.387-5.852l5.525-23.412-12.63-12.63zM98.309 131.7h5.209l-11.635-11.635a7.559 7.559 0 0 0-1.17 4.039 7.596 7.596 0 0 0 7.596 7.596M128.271 156.453h-.172l.033-.139-12.63-12.63-3.012 12.77H88.416a7.596 7.596 0 0 0 0 15.192h20.49l-7.99 33.864a7.596 7.596 0 1 0 14.784 3.487l8.814-37.352h18.95l-15.193-15.192z"/>
    </g>
</svg>
