<svg width="284" height="284" viewBox="0 0 284 284" xmlns="http://www.w3.org/2000/svg">
    <g fill="#1A1918" fill-rule="evenodd">
        <path d="M165.998 143.212c6.848-6.339 11.173-15.535 11.162-25.768-.02-19.05-15.019-34.533-33.434-34.513-10.27.01-19.464 4.845-25.588 12.421l47.86 47.86zM122.305 150.488c-18.23 9.137-30.904 29.2-30.879 52.416a3.404 3.404 0 0 0 3.408 3.4l83.196-.091-55.725-55.725z"/>
        <path d="M208.706 46.305c-6.106 4.422-12.171 8.882-17.974 13.662 27.89 16.6 46.623 47.05 46.623 81.796 0 22.076-7.56 42.417-20.226 58.576L83.679 66.89c14.525-11.383 32.418-18.659 51.924-20.009a95.851 95.851 0 0 1 6.634-.235c17.7 0 34.285 4.866 48.495 13.322 5.803-4.78 11.868-9.24 17.974-13.662-18.843-13.145-41.753-20.86-66.47-20.86-.38 0-.756.011-1.136.014-63.716.611-115.183 52.444-115.183 116.304 0 28.498 10.255 54.598 27.267 74.824 3.77-6.588 7.925-13.024 11.549-19.74-11.087-15.553-17.616-34.57-17.616-55.084 0-20.452 6.492-39.415 17.519-54.942L197.18 219.367c-15.528 11.026-34.493 17.515-54.944 17.515-31.936 0-60.246-15.82-77.504-40.035-3.624 6.716-7.778 13.152-11.55 19.74 21.339 25.37 53.31 41.495 89.054 41.495 64.24 0 116.318-52.077 116.318-116.319 0-39.524-19.72-74.438-49.85-95.458"/>
    </g>
</svg>
