<svg width="284" height="284" viewBox="0 0 284 284" fill="none" xmlns="http://www.w3.org/2000/svg">
<path fill-rule="evenodd" clip-rule="evenodd" d="M181.252 130.75C191.723 130.75 193.677 135.915 193.677 139.545V140.522C183.266 140.462 174.392 142.015 167.657 145.216L179.092 156.65C182.691 154.501 188.14 153.706 194.375 153.784V161.183C194.375 162.44 194.235 163.696 193.955 164.812C193.459 166.353 192.584 167.783 191.433 168.992L208.474 186.032H216.013C215.315 182.263 215.035 175.98 215.035 169.42V145.688C215.035 129.634 207.775 116.232 185.021 116.232C172.597 116.232 163.244 119.582 158.497 122.235L162.406 135.915C166.874 133.123 174.272 130.75 181.252 130.75Z" fill="#1A1919"/>
<path fill-rule="evenodd" clip-rule="evenodd" d="M208.362 46.3053C202.256 50.7273 196.191 55.1873 190.388 59.9673C218.279 76.5673 237.011 107.017 237.011 141.763C237.011 163.839 229.451 184.18 216.785 200.339L83.3352 66.8893C97.8602 55.5063 115.753 48.2303 135.259 46.8803C137.451 46.7283 139.662 46.6453 141.893 46.6453C159.594 46.6453 176.178 51.5113 190.388 59.9673C196.191 55.1873 202.256 50.7273 208.362 46.3053C189.519 33.1603 166.609 25.4453 141.893 25.4453C141.513 25.4453 141.136 25.4563 140.756 25.4593C77.0402 26.0703 25.5732 77.9033 25.5732 141.763C25.5732 170.261 35.8282 196.361 52.8402 216.587C56.6112 209.999 60.7652 203.563 64.3892 196.847C53.3022 181.294 46.7732 162.276 46.7732 141.763C46.7732 121.311 53.2652 102.348 64.2922 86.8213L196.837 219.367C181.309 230.393 162.344 236.882 141.893 236.882C109.957 236.882 81.6472 221.062 64.3892 196.847C60.7652 203.563 56.6112 209.999 52.8402 216.587C74.1782 241.956 106.149 258.082 141.893 258.082C206.133 258.082 258.211 206.005 258.211 141.763C258.211 102.239 238.492 67.3253 208.362 46.3053Z" fill="#1A1919"/>
<path fill-rule="evenodd" clip-rule="evenodd" d="M129.119 107.939L125.033 94.7613H115.941L129.119 107.939Z" fill="#1A1919"/>
<path fill-rule="evenodd" clip-rule="evenodd" d="M117.44 145.966H99.172L103.165 131.691L88.449 116.975L67.342 186.032H89.4L96.1 161.881H123.043L130.302 186.032H153.197L151.26 179.786L117.44 145.966Z" fill="#1A1919"/>
</svg>
