<svg width="280" height="280" viewBox="0 0 280 280" xmlns="http://www.w3.org/2000/svg">
    <g fill="#000" fill-rule="evenodd">
        <path d="M206.753 100.05c2.286 8.787 2.886 14.02 4.062 29.856.168 2.266.298 3.802.443 5.178 2.305 21.75 4.433 30.602 9.404 39.85 4.618 8.592 7.314 13.958 9.476 19.389 1.541 3.87 2.45 7.021 2.615 9.574.294 4.503-1.946 8.188-6.723 8.188H53.84c-4.777 0-7.017-3.685-6.724-8.188.166-2.553 1.074-5.703 2.615-9.574 2.163-5.431 4.859-10.797 9.476-19.388 4.971-9.25 7.1-18.102 9.404-39.85.146-1.377.276-2.913.444-5.179 1.176-15.836 1.775-21.07 4.061-29.856 6.76-25.982 23.443-42.492 54.494-46.306 3.23-.543 6.775-.816 10.645-.816.564 0 1.123.004 1.68.011.556-.007 1.116-.01 1.68-.01 3.87 0 7.415.272 10.645.815 31.051 3.814 47.733 20.324 54.493 46.306z" fill-rule="nonzero"/>
        <path d="M123.811 54.186c1.383-8.026 8.379-14.132 16.8-14.132 8.502 0 15.55 6.224 16.838 14.365a96.262 96.262 0 0 0-4.972-.735c-3.175-.541-6.743-.827-10.738-.827-.606 0-1.208.004-1.804.012-.597-.008-1.198-.012-1.804-.012-3.995 0-7.563.286-10.738.827-1.22.148-2.414.316-3.582.502zM164.283 220.715c-.994 11.028-10.262 19.67-21.55 19.67-11.287 0-20.555-8.642-21.55-19.67h43.1z"/>
    </g>
</svg>
