<svg width="284" height="284" viewBox="0 0 284 284" fill="none" xmlns="http://www.w3.org/2000/svg">
<path fill-rule="evenodd" clip-rule="evenodd" d="M234.098 71C231.263 71 228.599 72.105 226.597 74.109L112.543 188.251L57.7208 138.667C55.7688 136.898 53.2418 135.923 50.6088 135.923C47.6148 135.923 44.7458 137.197 42.7418 139.415C40.8398 141.515 39.8708 144.23 40.0138 147.06C40.1558 149.888 41.3898 152.492 43.4918 154.394L105.798 210.744C107.751 212.512 110.278 213.486 112.912 213.486C115.743 213.486 118.407 212.384 120.414 210.379L241.599 89.101C243.602 87.098 244.704 84.435 244.703 81.602C244.701 78.768 243.597 76.105 241.596 74.108C239.594 72.104 236.931 71 234.098 71Z" fill="#1A1919"/>
</svg>
