<svg width="284" height="284" viewBox="0 0 284 284" xmlns="http://www.w3.org/2000/svg">
    <path d="M234.098 71a10.533 10.533 0 0 0-7.501 3.109L112.543 188.251 57.72 138.667a10.574 10.574 0 0 0-7.112-2.744 10.622 10.622 0 0 0-7.867 3.492 10.522 10.522 0 0 0-2.728 7.645 10.537 10.537 0 0 0 3.478 7.334l62.306 56.35a10.582 10.582 0 0 0 7.114 2.742c2.83 0 5.495-1.102 7.502-3.107L241.599 89.101a10.53 10.53 0 0 0 3.104-7.499 10.53 10.53 0 0 0-3.107-7.494A10.529 10.529 0 0 0 234.098 71z" fill="#1A1918" fill-rule="evenodd"/>
</svg>
