<svg width="280" height="280" viewBox="0 0 280 280" xmlns="http://www.w3.org/2000/svg">
    <g fill="#1A1918" fill-rule="evenodd">
        <path d="M94.527 110.92c11.46 0 20.752-9.291 20.752-20.753 0-11.461-9.292-20.752-20.752-20.752-11.46 0-20.753 9.29-20.753 20.752s9.292 20.753 20.753 20.753"/>
        <path d="M230.41 42.451h-95.938c-.17 3.766-.436 7.55-.72 11.34h90.99v85.454l-25.779-25.387a5.667 5.667 0 0 0-8.004.047l-48.165 48.56c-.178 5.536-.42 11.09-.533 16.638l52.77-53.203 29.71 29.26v65.094H54.661v-22.973l39.787-33.667 31.246 24.998a5.669 5.669 0 0 0 7.566-.435l9.001-9.074c.112-5.548.355-11.102.533-16.639l-13.996 14.111-30.91-24.729a5.672 5.672 0 0 0-7.204.1l-36.023 30.481V53.79h79.09c.285-3.789.551-7.573.721-11.339h-85.48a5.67 5.67 0 0 0-5.669 5.67v184.907a5.669 5.669 0 0 0 5.67 5.67H230.41a5.669 5.669 0 0 0 5.67-5.67V48.12a5.67 5.67 0 0 0-5.67-5.669"/>
    </g>
</svg>
