<svg width="280" height="280" viewBox="0 0 280 280" xmlns="http://www.w3.org/2000/svg">
    <path d="M90.5 42c.278 9.112.661 18.224.848 27.335a20.85 20.85 0 0 1 3.857-.372c11.46 0 20.752 9.291 20.752 20.752 0 11.462-9.292 20.753-20.752 20.753-.439 0-.868-.039-1.301-.065-.102 17.875.269 35.751.196 53.627l1.025-.867 31.246 24.998a5.67 5.67 0 0 0 7.566-.435l61.771-62.276 29.71 29.258v65.022H55.339v-22.901L94.1 164.03c.073-17.876-.298-35.752-.196-53.627-10.853-.675-19.452-9.665-19.452-20.688 0-10.141 7.28-18.57 16.896-20.38-.187-9.111-.57-18.223-.848-27.335H49.669A5.67 5.67 0 0 0 44 47.669v184.908a5.669 5.669 0 0 0 5.669 5.669h181.418a5.669 5.669 0 0 0 5.669-5.669V47.669A5.67 5.67 0 0 0 231.087 42H90.5z" fill="#1A1918" fill-rule="evenodd"/>
</svg>
