<svg width="284" height="284" viewBox="0 0 284 284" fill="none" xmlns="http://www.w3.org/2000/svg">
<path d="M179.896 141.764L119.497 106.893V176.635L179.896 141.764Z" fill="#C4C4C4"/>
<path fill-rule="evenodd" clip-rule="evenodd" d="M45.8271 141.763C45.8271 195.009 88.9911 238.172 142.236 238.172C195.481 238.172 238.645 195.009 238.645 141.763C238.645 88.5185 195.481 45.3545 142.236 45.3545C88.9911 45.3545 45.8271 88.5185 45.8271 141.763ZM142.236 229.172C93.9616 229.172 54.8271 190.039 54.8271 141.763C54.8271 93.4891 93.9617 54.3545 142.236 54.3545C190.511 54.3545 229.645 93.4891 229.645 141.763C229.645 190.039 190.511 229.172 142.236 229.172Z" fill="#C4C4C4"/>
</svg>
