<svg width="284" height="284" viewBox="0 0 284 284" fill="none" xmlns="http://www.w3.org/2000/svg">
<path fill-rule="evenodd" clip-rule="evenodd" d="M142.409 46C89.163 46 46 89.164 46 142.409C46 195.654 89.163 238.818 142.409 238.818C155.59 238.818 168.153 236.169 179.597 231.38C172.606 208.248 165.748 184.97 156.425 162.677C155.799 160.8 154.88 159.118 153.912 157.51L119.669 177.28V107.538L180.068 142.409L153.912 157.51C154.88 159.118 155.799 160.8 156.425 162.677C165.748 184.97 172.606 208.248 179.597 231.38C214.379 216.825 238.818 182.473 238.818 142.409C238.818 89.164 195.654 46 142.409 46Z" fill="#1A1919"/>
</svg>
