<svg width="284" height="284" viewBox="0 0 284 284" xmlns="http://www.w3.org/2000/svg">
    <path d="M142.409 46C89.163 46 46 89.164 46 142.409c0 53.245 43.163 96.409 96.409 96.409 13.181 0 25.744-2.649 37.188-7.438-6.991-23.132-13.849-46.41-23.172-68.703-.626-1.877-1.545-3.559-2.513-5.167l-34.243 19.77v-69.742l60.399 34.871-26.156 15.101c.968 1.608 1.887 3.29 2.513 5.167 9.323 22.293 16.181 45.571 23.172 68.703 34.782-14.555 59.221-48.907 59.221-88.971 0-53.245-43.164-96.409-96.409-96.409z" fill="#1A1918" fill-rule="evenodd"/>
</svg>
