<svg width="284" height="284" viewBox="0 0 284 284" fill="none" xmlns="http://www.w3.org/2000/svg">
<path fill-rule="evenodd" clip-rule="evenodd" d="M253.828 55.743C253.828 48.184 247.644 42 240.085 42H43.743C36.184 42 30 48.184 30 55.743V147.267C30 183.85 79.291 241.814 140.708 241.814C172.4 241.814 201.482 226.68 222.231 206.856C210.097 194.324 198.278 181.267 185.144 168.863C180.811 165.613 175.747 161.656 170.448 158.414L153.795 174.322C150.829 177.153 147.01 178.573 143.189 178.573C139.45 178.573 135.712 177.215 132.767 174.493L78.565 124.381C72.339 118.624 71.958 108.911 77.714 102.685C83.471 96.458 93.187 96.081 99.41 101.835L143.017 142.152L185.043 102.006C191.176 96.15 200.892 96.37 206.75 102.503C212.607 108.634 212.384 118.352 206.254 124.21L170.448 158.414C175.747 161.656 180.811 165.613 185.144 168.863C198.278 181.267 210.097 194.324 222.231 206.856C241.694 188.261 253.828 165.541 253.828 147.267V55.743Z" fill="#1A1919"/>
</svg>
