<svg width="284" height="284" viewBox="0 0 284 284" fill="none" xmlns="http://www.w3.org/2000/svg">
<path d="M155.473 96.548C169.984 96.548 181.747 84.785 181.747 70.274C181.747 55.763 169.984 44 155.473 44C140.962 44 129.199 55.763 129.199 70.274C129.199 78.9005 133.357 86.5558 139.777 91.346L123.938 128.014C122.405 131.563 124.039 135.683 127.589 137.216C128.493 137.607 129.434 137.792 130.36 137.792C133.069 137.792 135.648 136.21 136.79 133.566L152.836 96.4173C153.704 96.5037 154.583 96.548 155.473 96.548Z" fill="#1A1919"/>
<path d="M189.333 83.1427H227.01C232.479 83.1427 236.912 87.5767 236.912 93.0457V184.878C236.912 187.539 235.841 190.088 233.941 191.951L188.678 236.302C186.827 238.115 184.339 239.131 181.747 239.131H57.903C52.434 239.131 48 234.698 48 229.229V93.0457C48 87.5767 52.434 83.1427 57.903 83.1427H113.607V102.948H67.805V219.326H175.923V184.877C175.923 183.332 176.536 181.851 177.629 180.758C178.721 179.666 180.203 179.052 181.748 179.052H217.107V102.948H189.333V83.1427Z" fill="#1A1919"/>
</svg>
