<svg width="284" height="284" viewBox="0 0 284 284" xmlns="http://www.w3.org/2000/svg">
    <g fill="#1A1918" fill-rule="evenodd">
        <path d="M175.923 219.326H67.805V102.948h45.802V83.143H57.903c-5.469 0-9.903 4.434-9.903 9.903v136.183c0 5.469 4.434 9.902 9.903 9.902h123.844a9.905 9.905 0 0 0 6.931-2.83l45.263-44.35a9.906 9.906 0 0 0 2.971-7.073V93.046c0-5.47-4.433-9.903-9.902-9.903h-37.677v19.805h27.774v76.104h-35.36a5.826 5.826 0 0 0-5.824 5.825v34.449z"/>
        <path d="M130.36 137.792a6.965 6.965 0 0 1-2.77-.576 7 7 0 0 1-3.651-9.202l24.907-57.663a7 7 0 0 1 12.852 5.552l-24.907 57.663a7.003 7.003 0 0 1-6.43 4.226"/>
        <path d="M155.474 96.548c-14.511 0-26.274-11.763-26.274-26.274C129.2 55.763 140.963 44 155.474 44c14.51 0 26.274 11.763 26.274 26.274 0 14.511-11.763 26.274-26.274 26.274z"/>
    </g>
</svg>
