<svg width="280" height="280" viewBox="0 0 280 280" fill="none" xmlns="http://www.w3.org/2000/svg">
<path d="M16.8398 149.449C11.2909 148.552 4 146.195 4 140.001C4 133.806 11.2909 131.448 16.8398 130.551C21.2961 105.788 42.9539 87 69 87C93.7023 87 114.458 103.9 120.335 126.768C120.645 126.651 120.961 126.534 121.283 126.417C126.313 124.587 133.415 122.512 140.237 122.512C147.056 122.512 154.165 124.586 159.2 126.416C159.371 126.478 159.541 126.54 159.708 126.602C165.643 103.818 186.357 87 211 87C237.002 87 258.63 105.724 263.137 130.425C268.689 131.224 276 133.509 276 140.001C276 146.493 268.689 148.777 263.137 149.576C262.066 155.445 260.028 160.977 257.195 166H240.069C246.245 159.1 250 149.989 250 140C250 118.461 232.539 101 211 101C189.461 101 172 118.461 172 140C172 149.989 175.755 159.1 181.931 166H164.805C160.622 158.585 158.174 150.061 158.009 140.98C156.964 140.541 155.75 140.057 154.42 139.574C149.868 137.921 144.595 136.512 140.237 136.512C135.879 136.512 130.613 137.92 126.069 139.573C124.524 140.135 123.135 140.699 121.987 141.191C121.788 150.193 119.345 158.642 115.195 166H98.0694C104.245 159.1 108 149.989 108 140C108 118.461 90.5391 101 69 101C47.4609 101 30 118.461 30 140C30 149.989 33.7551 159.1 39.9306 166H22.8048C19.9511 160.941 17.9045 155.365 16.8398 149.449Z" fill="black"/>
<path d="M22.8049 166C31.8956 182.117 49.1769 193 69.0001 193C88.8233 193 106.105 182.117 115.195 166H98.0695C90.9283 173.979 80.5506 179 69.0001 179C57.4496 179 47.0719 173.979 39.9307 166H22.8049Z" fill="black"/>
<path d="M164.805 166C173.896 182.117 191.177 193 211 193C230.823 193 248.105 182.117 257.195 166H240.069C232.928 173.979 222.551 179 211 179C199.45 179 189.072 173.979 181.931 166H164.805Z" fill="black"/>
</svg>
