<svg width="280" height="280" viewBox="0 0 280 280" xmlns="http://www.w3.org/2000/svg">
    <g fill="none" fill-rule="evenodd">
        <path d="M69 193c-29.271 0-53-23.729-53-53s23.729-53 53-53 53 23.729 53 53-23.729 53-53 53zm0-14c21.54 0 39-17.46 39-39s-17.46-39-39-39-39 17.46-39 39 17.46 39 39 39z" fill="#000" fill-rule="nonzero"/>
        <path d="M17.078 134.638v10.251s-7.547 0-7.547-5.125c0-5.126 7.547-5.126 7.547-5.126" fill="#1A1918"/>
        <path d="M161.78 136.478s-10.365-6.966-21.543-6.966c-11.18 0-21.584 6.966-21.584 6.966" fill="#FFF"/>
        <path d="M168.194 130.25c-.525-.27-1.416-.701-2.614-1.242a92.043 92.043 0 0 0-6.38-2.592c-4.332-1.574-8.618-2.76-12.738-3.396-2.152-.332-4.228-.508-6.225-.508-1.982 0-4.041.173-6.173.5-4.135.634-8.435 1.824-12.781 3.405a91.685 91.685 0 0 0-6.372 2.593c-1.196.54-2.086.973-2.61 1.242l6.398 12.452c.06-.03.216-.109.461-.228.435-.21.942-.448 1.515-.707a77.781 77.781 0 0 1 5.394-2.196c3.548-1.29 6.995-2.244 10.117-2.723 1.462-.224 2.82-.338 4.05-.338 1.242 0 2.613.116 4.09.344 3.116.481 6.555 1.433 10.094 2.718a78.14 78.14 0 0 1 5.405 2.197 61.667 61.667 0 0 1 1.981.936l6.388-12.458z" fill="#000" fill-rule="nonzero"/>
        <path d="M263.395 134.638v10.251s7.547.241 7.547-5.125-7.547-5.126-7.547-5.126" fill="#1A1918"/>
        <path d="M211 193c-29.271 0-53-23.729-53-53s23.729-53 53-53 53 23.729 53 53-23.729 53-53 53zm0-14c21.54 0 39-17.46 39-39s-17.46-39-39-39-39 17.46-39 39 17.46 39 39 39z" fill="#000" fill-rule="nonzero"/>
    </g>
</svg>
