<svg width="284" height="284" viewBox="0 0 284 284" xmlns="http://www.w3.org/2000/svg">
    <path d="M156.567 141.717l65.792-65.792c4.1-4.1 4.1-10.75 0-14.85-4.102-4.1-10.748-4.1-14.85 0l-65.792 65.792-65.792-65.791c-4.101-4.101-10.748-4.101-14.85 0-4.1 4.1-4.1 10.749 0 14.849l65.793 65.792-65.792 65.792c-4.101 4.1-4.101 10.749 0 14.849a10.465 10.465 0 0 0 7.425 3.076c2.686 0 5.375-1.026 7.424-3.076l65.792-65.791 65.792 65.79a10.467 10.467 0 0 0 7.425 3.077 10.47 10.47 0 0 0 7.425-3.076c4.1-4.1 4.1-10.75 0-14.85l-65.792-65.791z" fill="#1A1918" fill-rule="evenodd"/>
</svg>
