<svg width="284" height="284" viewBox="0 0 284 284" xmlns="http://www.w3.org/2000/svg">
    <path d="M69.415 51C54.826 51 43 62.826 43 77.415v21.562c13.462.816 26.924 1.66 40.387 3.298v-2.852c0-1.555.539-2.873 1.616-3.951 1.078-1.078 2.335-1.616 3.771-1.616h73.269V75.335c0-2.514.686-4.069 2.064-4.67 1.376-.596 3.081 0 5.118 1.796l28.913 26.579c1.436 1.197 2.154 2.634 2.154 4.308 0 1.678-.718 3.115-2.154 4.311l-28.913 26.578c-2.037 1.795-3.742 2.396-5.118 1.795-1.378-.596-2.064-2.154-2.064-4.669v-18.521h-58.209v13.493L83.387 145.37v-43.095C69.924 100.637 56.462 99.793 43 98.977V206.29c0 14.589 11.826 26.415 26.415 26.415h79.314c-.377-14.258-.427-28.354-.431-42.856h-26.662v18.521c0 2.514-.686 4.069-2.064 4.67-1.376.596-3.081 0-5.118-1.796l-28.913-26.578c-1.437-1.198-2.154-2.634-2.154-4.309 0-1.678.717-3.115 2.154-4.311l28.913-26.578c2.037-1.795 3.742-2.396 5.118-1.795 1.378.597 2.064 2.155 2.064 4.669v18.521h58.209V157.37l20.447-19.035v45.947c0 1.555-.539 2.873-1.616 3.95-1.078 1.079-2.335 1.617-3.771 1.617h-46.607c.004 14.502.054 28.598.431 42.856h65.535c14.589 0 26.415-11.826 26.415-26.415V77.415c0-14.589-11.826-26.415-26.415-26.415H69.415z" fill="#1A1918" fill-rule="evenodd"/>
</svg>
