<svg width="280" height="280" viewBox="0 0 280 280" xmlns="http://www.w3.org/2000/svg">
    <g fill="none" fill-rule="evenodd">
        <path d="M177.93 150.93c-11.24 11.135-26.661 18.464-43.733 18.464-34.35 0-62.197-27.846-62.197-62.197C72 72.847 99.847 45 134.197 45s62.197 27.847 62.197 62.197c0 17.176-7.209 32.477-18.464 43.733L210 183" stroke="#000" stroke-width="9" stroke-linecap="round" stroke-linejoin="round"/>
        <path d="M136.467 254.077a4.5 4.5 0 0 0 6.566 0l17.41-18.577H235.5a4.5 4.5 0 0 0 0-9h-77.006a4.5 4.5 0 0 0-3.284 1.423l-15.46 16.496-15.46-16.496a4.5 4.5 0 0 0-3.284-1.423H44a4.5 4.5 0 0 0 0 9h75.056l17.41 18.577z" fill-rule="nonzero" fill="#000"/>
    </g>
</svg>
