<svg width="280" height="280" viewBox="0 0 280 280" fill="none" xmlns="http://www.w3.org/2000/svg">
<path fill-rule="evenodd" clip-rule="evenodd" d="M134.099 176.197C150.853 176.197 166.118 170.068 178.14 160.453L205.343 187.657C208.467 190.781 213.533 190.781 216.657 187.657C219.781 184.533 219.781 179.467 216.657 176.343L189.475 149.162C199.166 137.13 205.197 121.927 205.197 105.099C205.197 65.8319 173.365 34 134.099 34C94.8319 34 63 65.8319 63 105.099C63 144.365 94.8319 176.197 134.099 176.197ZM79 105.099C79 74.6685 103.668 50 134.099 50C164.529 50 189.197 74.6685 189.197 105.099C189.197 120.196 182.878 133.731 172.822 143.794C162.744 153.773 149.069 160.197 134.099 160.197C103.668 160.197 79 135.529 79 105.099Z" fill="#C4C4C4"/>
<path d="M160.444 235.5L143.033 254.077C141.256 255.974 138.244 255.974 136.467 254.077L119.056 235.5H44C41.5147 235.5 39.5 233.485 39.5 231C39.5 228.515 41.5147 226.5 44 226.5H121.006C122.25 226.5 123.439 227.015 124.29 227.923L139.75 244.419L155.21 227.923C156.061 227.015 157.25 226.5 158.494 226.5H235.5C237.985 226.5 240 228.515 240 231C240 233.485 237.985 235.5 235.5 235.5H160.444Z" fill="#C4C4C4"/>
</svg>
