<svg width="280" height="280" viewBox="0 0 280 280" fill="none" xmlns="http://www.w3.org/2000/svg">
<path fill-rule="evenodd" clip-rule="evenodd" d="M134.197 175.394C150.853 175.394 165.995 169.069 177.735 159.221L205.757 187.243C208.101 189.586 211.899 189.586 214.243 187.243C216.586 184.899 216.586 181.101 214.243 178.757L186.238 150.753C196.171 139.003 202.394 123.932 202.394 107.197C202.394 69.5329 171.861 39 134.197 39C96.5329 39 66 69.5329 66 107.197C66 144.861 96.5329 175.394 134.197 175.394ZM78 107.197C78 76.1603 103.16 51 134.197 51C165.234 51 190.394 76.1603 190.394 107.197C190.394 122.628 183.931 136.438 173.697 146.677C163.451 156.824 149.507 163.394 134.197 163.394C103.16 163.394 78 138.234 78 107.197Z" fill="#C4C4C4"/>
<path d="M160.444 235.5L143.033 254.077C141.256 255.974 138.244 255.974 136.467 254.077L119.056 235.5H44C41.5147 235.5 39.5 233.485 39.5 231C39.5 228.515 41.5147 226.5 44 226.5H121.006C122.25 226.5 123.439 227.015 124.29 227.923L139.75 244.419L155.21 227.923C156.061 227.015 157.25 226.5 158.494 226.5H235.5C237.985 226.5 240 228.515 240 231C240 233.485 237.985 235.5 235.5 235.5H160.444Z" fill="#C4C4C4"/>
</svg>
