<svg width="280" height="280" viewBox="0 0 280 280" fill="none" xmlns="http://www.w3.org/2000/svg">
<path fill-rule="evenodd" clip-rule="evenodd" d="M188.849 200.163C173.103 213.385 152.786 221.878 130.439 221.878C79.9386 221.878 39 180.939 39 130.439C39 79.9386 79.9386 39 130.439 39C180.939 39 221.878 79.9386 221.878 130.439C221.878 152.893 213.521 173.112 200.186 188.872L237.787 226.473C240.911 229.597 240.911 234.663 237.787 237.787C234.663 240.911 229.597 240.911 226.473 237.787L188.849 200.163ZM130.439 55C88.7751 55 55 88.7751 55 130.439C55 172.103 88.7751 205.878 130.439 205.878C150.992 205.878 169.712 197.056 183.464 183.436C197.202 169.692 205.878 151.153 205.878 130.439C205.878 88.7751 172.103 55 130.439 55Z" fill="#C4C4C4"/>
</svg>
