<svg width="280" height="280" viewBox="0 0 280 280" fill="none" xmlns="http://www.w3.org/2000/svg">
<path fill-rule="evenodd" clip-rule="evenodd" d="M134.197 173.894C150.961 173.894 166.177 167.333 177.815 157.179L206.818 186.182C208.575 187.939 211.425 187.939 213.182 186.182C214.939 184.425 214.939 181.575 213.182 179.818L184.192 150.828C194.439 139.18 200.894 124.046 200.894 107.197C200.894 70.3613 171.033 40.5 134.197 40.5C97.3613 40.5 67.5 70.3613 67.5 107.197C67.5 144.033 97.3613 173.894 134.197 173.894ZM76.5 107.197C76.5 75.3319 102.332 49.5 134.197 49.5C166.062 49.5 191.894 75.3319 191.894 107.197C191.894 123.064 185.245 137.247 174.755 147.74C164.261 158.134 149.947 164.894 134.197 164.894C102.332 164.894 76.5 139.062 76.5 107.197Z" fill="#C4C4C4"/>
<path d="M160.444 235.5L143.033 254.077C141.256 255.974 138.244 255.974 136.467 254.077L119.056 235.5H44C41.5147 235.5 39.5 233.485 39.5 231C39.5 228.515 41.5147 226.5 44 226.5H121.006C122.25 226.5 123.439 227.015 124.29 227.923L139.75 244.419L155.21 227.923C156.061 227.015 157.25 226.5 158.494 226.5H235.5C237.985 226.5 240 228.515 240 231C240 233.485 237.985 235.5 235.5 235.5H160.444Z" fill="#C4C4C4"/>
</svg>
