<svg width="280" height="280" viewBox="0 0 280 280" fill="none" xmlns="http://www.w3.org/2000/svg">
<path fill-rule="evenodd" clip-rule="evenodd" d="M188.954 197.44C173.345 211.07 152.931 219.878 130.439 219.878C81.0431 219.878 41 179.835 41 130.439C41 81.0431 81.0431 41 130.439 41C179.835 41 219.878 81.0431 219.878 130.439C219.878 153.045 211.212 173.349 197.458 188.972L236.373 227.887C238.716 230.23 238.716 234.029 236.373 236.373C234.029 238.716 230.23 238.716 227.887 236.373L188.954 197.44ZM130.439 53C87.6706 53 53 87.6706 53 130.439C53 173.207 87.6706 207.878 130.439 207.878C151.578 207.878 170.789 198.805 184.872 184.856C198.952 170.773 207.878 151.736 207.878 130.439C207.878 87.6706 173.207 53 130.439 53Z" fill="#C4C4C4"/>
</svg>
