<svg width="280" height="280" viewBox="0 0 280 280" xmlns="http://www.w3.org/2000/svg">
    <path d="M186.396 193.142l42.99 42.99a4.77 4.77 0 1 0 6.747-6.746l-42.989-42.988-.002 6.744a93.989 93.989 0 0 0 3.288-3.459c14.583-16.144 22.862-36.665 22.862-58.537 0-48.682-39.465-88.146-88.146-88.146C82.464 43 43 82.464 43 131.146c0 48.681 39.464 88.146 88.146 88.146 21.676 0 42.322-8.363 58.523-22.876a94.486 94.486 0 0 0 3.458-3.258c1.872-1.874 1.88-4.881.03-6.747a4.775 4.775 0 0 0-6.746-.031c-14.926 14.79-34.605 23.37-55.265 23.37-43.412 0-78.604-35.192-78.604-78.604s35.192-78.604 78.604-78.604 78.604 35.192 78.604 78.604c0 20.872-8.483 40.378-23.354 55.25a4.77 4.77 0 0 0 0 6.746z" fill-rule="nonzero" fill="#000"/>
</svg>
