<svg width="280" height="280" viewBox="0 0 280 280" xmlns="http://www.w3.org/2000/svg">
    <path d="M205.246 131.028c0-40.99-33.228-74.218-74.218-74.218S56.81 90.038 56.81 131.028s33.228 74.218 74.218 74.218c19.47 0 38.045-8.097 52.165-22.08 14.055-14.062 22.053-32.46 22.053-52.138zm-22.067 64.038a8.405 8.405 0 0 1 0-11.887c3.317-3.286 8.621-3.27 11.89.004 3.28 3.31 3.267 8.608.002 11.878a97.212 97.212 0 0 1-6.23 5.665c-16.29 13.565-36.562 21.33-57.813 21.33-50.273 0-91.028-40.754-91.028-91.028C40 80.755 80.755 40 131.028 40c50.274 0 91.028 40.755 91.028 91.028 0 21.431-7.688 41.603-21.306 57.836a96.304 96.304 0 0 1-5.68 6.197l-.004-11.882 42.602 42.603a8.405 8.405 0 0 1-11.886 11.886l-42.603-42.602z" fill-rule="nonzero" fill="#000"/>
</svg>
