<svg width="280" height="280" viewBox="0 0 280 280" xmlns="http://www.w3.org/2000/svg">
    <g fill="none" fill-rule="evenodd">
        <path d="M178.465 149.465c-11.402 11.297-27.048 18.732-44.366 18.732C99.25 168.197 71 139.947 71 105.1 71 70.25 99.25 42 134.099 42c34.848 0 63.098 28.25 63.098 63.099 0 17.424-7.313 32.947-18.732 44.366L211 182" stroke="#000" stroke-width="16" stroke-linecap="round" stroke-linejoin="round"/>
        <path d="M136.467 254.077a4.5 4.5 0 0 0 6.566 0l17.41-18.577H235.5a4.5 4.5 0 0 0 0-9h-77.006a4.5 4.5 0 0 0-3.284 1.423l-15.46 16.496-15.46-16.496a4.5 4.5 0 0 0-3.284-1.423H44a4.5 4.5 0 0 0 0 9h75.056l17.41 18.577z" fill-rule="nonzero" fill="#000"/>
    </g>
</svg>
