<svg width="284" height="284" viewBox="0 0 284 284" xmlns="http://www.w3.org/2000/svg">
    <path d="M179.075 164.178l5.291-41.768h32.77c5.522 0 10-4.477 10-10s-4.478-10-10-10H186.9l6.987-55.153c.694-5.479-3.186-10.483-8.664-11.178-5.485-.689-10.483 3.186-11.178 8.664l-7.305 57.667h-39.42l6.987-55.153c.694-5.479-3.186-10.483-8.664-11.178-5.482-.689-10.483 3.186-11.178 8.664l-7.305 57.667H67c-5.522 0-10 4.477-10 10s4.478 10 10 10h37.626l-5.291 41.768H67c-5.522 0-10 4.477-10 10s4.478 10 10 10h29.802L90.249 235.9c-.694 5.48 3.186 10.484 8.664 11.178.427.054.851.08 1.27.08 4.963 0 9.267-3.692 9.908-8.744l6.871-54.235h25.354c.808-6.667 1.724-13.333 2.64-20h-25.461l5.291-41.768h39.42l-5.291 41.768h-13.959c-.916 6.667-1.832 13.333-2.64 20h14.066l-6.553 51.721c-.694 5.48 3.186 10.484 8.664 11.178.427.054.851.08 1.27.08 4.963 0 9.268-3.692 9.908-8.744l6.871-54.235h40.594c5.522 0 10-4.477 10-10s-4.478-10-10-10h-38.061z" fill="#1A1918" fill-rule="evenodd"/>
</svg>
