<svg width="280" height="280" viewBox="0 0 280 280" fill="none" xmlns="http://www.w3.org/2000/svg">
<path fill-rule="evenodd" clip-rule="evenodd" d="M140 43C142.285 43 144.372 44.2982 145.382 46.3481L173.344 103.099L235.864 112.198C238.123 112.527 240 114.109 240.706 116.28C241.412 118.451 240.825 120.834 239.192 122.429L193.946 166.606L204.627 228.987C205.013 231.239 204.086 233.514 202.238 234.856C200.389 236.198 197.939 236.373 195.918 235.309L140 205.863L84.0824 235.309C82.0613 236.373 79.611 236.198 77.7624 234.856C75.9137 233.514 74.9873 231.239 75.3728 228.987L86.0544 166.606L40.8084 122.429C39.1751 120.834 38.5882 118.451 39.2942 116.28C40.0002 114.109 41.8769 112.527 44.1358 112.198L106.656 103.099L134.618 46.3481C135.628 44.2982 137.715 43 140 43ZM140 62.5754L116.026 111.233C115.152 113.006 113.463 114.234 111.508 114.519L57.8787 122.325L96.6916 160.221C98.1029 161.598 98.7468 163.582 98.4139 165.526L89.2536 219.024L137.204 193.773C138.954 192.851 141.046 192.851 142.796 193.773L190.746 219.024L181.586 165.526C181.253 163.582 181.897 161.598 183.308 160.221L222.121 122.325L168.492 114.519C166.537 114.234 164.848 113.006 163.974 111.233L140 62.5754Z" fill="#C4C4C4"/>
</svg>
