<svg width="280" height="280" viewBox="0 0 280 280" xmlns="http://www.w3.org/2000/svg">
    <path d="M138.146 198.241a4.5 4.5 0 0 1 4.188 0l52.95 27.838-10.112-58.962a4.5 4.5 0 0 1 1.294-3.983l42.839-41.757-59.201-8.602a4.5 4.5 0 0 1-3.389-2.462L140.24 56.668l-26.476 53.645a4.5 4.5 0 0 1-3.388 2.462l-59.2 8.602 42.837 41.757a4.5 4.5 0 0 1 1.295 3.983L85.195 226.08l52.95-27.838zm-56.834 40.047c-3.301 1.736-7.16-1.067-6.529-4.744l11.254-65.616-47.673-46.47c-2.671-2.604-1.197-7.14 2.494-7.676l65.883-9.573 29.464-59.7c1.65-3.345 6.42-3.345 8.07 0l29.464 59.7 65.883 9.573c3.691.536 5.165 5.072 2.494 7.676l-47.673 46.47 11.254 65.616c.63 3.677-3.228 6.48-6.53 4.744l-58.927-30.98-58.928 30.98z" fill-rule="nonzero" fill="#000"/>
</svg>
