<svg width="284" height="284" viewBox="0 0 284 284" xmlns="http://www.w3.org/2000/svg">
    <path d="M92.36 220.857c-20.565-12.951-35.033-33.091-40.737-56.711-5.692-23.572-2.05-48.038 10.257-68.892.724-1.227 2.058-1.932 3.47-1.967a4 4 0 0 1 3.446 2.013l22.27 38.89a4 4 0 0 1-6.942 3.975l-18.686-32.631c-8.527 17.606-10.684 37.495-6.038 56.734 5.212 21.582 18.43 39.986 37.223 51.82 19.16 12.065 41.87 15.947 63.95 10.933 22.08-5.015 40.886-18.33 52.952-37.49 24.907-39.55 12.993-91.99-26.557-116.898-41.497-26.135-79.906-8.402-91.204.637a4 4 0 0 1-4.998-6.246C103.3 54.994 145.78 35.24 191.23 63.863c43.283 27.259 56.32 84.65 29.063 127.933-13.204 20.968-33.784 35.538-57.948 41.027a93.565 93.565 0 0 1-20.728 2.338c-17.292 0-34.267-4.863-49.258-14.304z" fill="#1A1918" fill-rule="evenodd"/>
</svg>
