<svg width="284" height="284" viewBox="0 0 284 284" xmlns="http://www.w3.org/2000/svg">
    <path d="M170.785 204.726h73.699l-.002-42.46c0-14.101-9.525-25.572-21.232-25.572h-52.467v-31.121c0-14.101-9.525-25.573-21.232-25.573l-43.283.001c.278 3.707.193 7.506.028 11.34l43.255-.001c5.361 0 9.892 6.518 9.892 14.233v87.811l-109.104.001v-87.811c0-7.715 4.53-14.233 9.891-14.233h46.066c.165-3.834.25-7.633-.028-11.34H60.23C48.524 80.001 39 91.473 39 105.574v99.152l131.783-.001v-56.691h52.467c5.363 0 9.892 6.517 9.892 14.232l.002 31.12h-62.359v11.34z" fill="#1A1918" fill-rule="evenodd"/>
</svg>
