<svg width="284" height="284" viewBox="0 0 284 284" xmlns="http://www.w3.org/2000/svg">
    <g fill="#1A1918" fill-rule="evenodd">
        <path d="M153.66 201.642c-.421 0-.846-.037-1.27-.111L41.05 181.777a7.272 7.272 0 1 1 2.542-14.32l107.96 19.154 85.435-72.917a7.273 7.273 0 0 1 9.442 11.063L158.382 199.9a7.271 7.271 0 0 1-4.721 1.74M149.095 127.565c-.342 0-.69-.03-1.04-.09l-51.703-8.935a6.058 6.058 0 0 1-4.94-7.003 6.056 6.056 0 0 1 7.004-4.94l51.704 8.936a6.06 6.06 0 0 1-1.025 12.032"/>
        <path d="M224.54 93.664l-14.521-35.762a7.277 7.277 0 0 0-5.413-4.415l-28.56-5.288c-5.53 3.738-11.39 7.23-16.438 11.747l36.259 6.714-10.476 11.18a6.665 6.665 0 0 0 2.702 10.863l19.683 6.752-56.294 48.66-92.641-16.437 84.047-70.828 16.72 3.096c5.048-4.517 10.909-8.009 16.439-11.747l-33.892-6.276a7.284 7.284 0 0 0-6.01 1.59l-98.551 83.052a7.276 7.276 0 0 0-2.337 7.447 7.275 7.275 0 0 0 5.753 5.274l111.34 19.753a7.263 7.263 0 0 0 6.025-1.659l64.183-55.479a7.274 7.274 0 0 0 1.982-8.237"/>
        <path d="M168.924 111.284c-.343 0-.69-.03-1.04-.09l-51.703-8.935a6.06 6.06 0 0 1-4.94-7.003 6.056 6.056 0 0 1 7.004-4.939l51.704 8.935a6.06 6.06 0 0 1-1.025 12.032M159.11 89.46c-.342 0-.69-.03-1.038-.09l-21.85-3.774a6.06 6.06 0 0 1 2.065-11.942l21.849 3.775a6.06 6.06 0 0 1-1.025 12.032M153.66 242.15c-.421 0-.846-.038-1.27-.112L41.05 222.283a7.272 7.272 0 1 1 2.542-14.32l107.96 19.155 85.435-72.917a7.27 7.27 0 1 1 9.442 11.061l-88.047 75.146a7.27 7.27 0 0 1-4.721 1.741"/>
    </g>
</svg>
