<svg width="284" height="284" viewBox="0 0 284 284" xmlns="http://www.w3.org/2000/svg">
    <path d="M181.067 107.798l9.516-40.326a9.329 9.329 0 0 0-18.159-4.284l-10.526 44.61h-9.826c-.804 6.144-.8 12.461-1.606 18.657h7.03l-7.173 30.398h-25.262l7.173-30.398h18.232c.806-6.196.802-12.513 1.606-18.657h-15.436l9.516-40.326a9.328 9.328 0 0 0-6.937-11.22 9.327 9.327 0 0 0-11.221 6.936l-10.526 44.61h-28.99a9.33 9.33 0 0 0 0 18.657h24.588l-7.173 30.398H76.329a9.33 9.33 0 0 0 0 18.657h25.162l-9.813 41.587c-1.184 5.013 1.922 10.038 6.936 11.221.721.17 1.441.251 2.151.251 4.228 0 8.057-2.894 9.07-7.188l10.824-45.87h25.261l-9.813 41.585c-1.183 5.014 1.923 10.04 6.936 11.222.721.17 1.442.251 2.151.251 4.228 0 8.058-2.894 9.072-7.187l10.824-45.872h31.278a9.328 9.328 0 0 0 9.328-9.328c0-5.152-4.176-9.329-9.328-9.329h-26.876l7.173-30.398h31.851c5.152 0 9.328-4.177 9.328-9.329a9.328 9.328 0 0 0-9.328-9.328h-27.449z" fill="#1A1918" fill-rule="evenodd"/>
</svg>
