<svg width="284" height="284" viewBox="0 0 284 284" xmlns="http://www.w3.org/2000/svg">
    <path d="M147.604 89.172a29.952 29.952 0 0 0-4.204-.295c-19.376 0-38.019 17.762-44.329 42.234-6.399 24.817-1.397 39.726 3.926 47.863 5.308 8.115 13.208 13.225 22.841 14.777 1.93.312 3.889.47 5.822.47 10.198 0 19.861-4.321 27.788-12.307.665 2.056 1.601 3.886 2.803 5.475 2.269 3 6.563 6.58 14.148 6.621 11.798.327 23.247-4.253 32.09-12.832 12.098-11.734 18.761-29.738 18.761-50.744-.292-18.916-9.023-38.104-23.957-52.645C187.538 62.448 166.84 54 145.014 54c-23.872 0-46.121 9.197-62.648 25.898C66.008 96.426 57 118.455 57 141.926c0 23.679 8.061 45.617 22.699 61.772 15.281 16.866 36.755 26.154 60.467 26.154 25.245 0 47.087-12.47 48.005-13.001 3.826-2.214 5.137-7.129 2.922-10.957a8.048 8.048 0 0 0-6.943-3.999 8.029 8.029 0 0 0-4.008 1.076c-.189.108-19.133 10.848-39.976 10.848-38.899 0-67.132-30.236-67.132-71.893 0-40.313 31.618-71.892 71.98-71.892 38.465 0 65.762 31.923 66.202 60.523 0 16.533-4.933 30.423-13.891 39.112-5.614 5.445-12.433 8.323-19.717 8.323-.279 0-.558-.004-.879-.013-1.329-.002-1.661-.227-1.689-.262-1.193-1.57-.912-7.291.115-10.981l17.584-68.185a7.964 7.964 0 0 0-.857-6.076 7.962 7.962 0 0 0-4.901-3.689 8.012 8.012 0 0 0-9.767 5.76l-3.903 15.135a40.885 40.885 0 0 0-3.759-6.711c-3.161-4.546-7.053-8.05-11.601-10.452l-3.112-1.432-2.612-1.032c-.513 5.479-1.284 10.937-2.528 16.266 2.587 1.194 4.834 3.136 6.687 5.802 5.458 7.852 6.969 20.551 4.041 33.971-4.535 20.785-17.73 34.144-32.036 31.829-5.062-.816-9.204-3.488-11.976-7.725-5.025-7.682-5.671-20.142-1.818-35.083 5.058-19.617 18.616-30.203 28.803-30.203.661 0 1.315.046 1.948.136 1.02.145 2.027.387 2.991.72.482.167.924.352 1.36.553 1.244-5.329 2.015-10.787 2.528-16.266-1.811-.385-3.21-.681-4.623-.882z" fill="#1A1918" fill-rule="evenodd"/>
</svg>
