<svg width="284" height="284" viewBox="0 0 284 284" xmlns="http://www.w3.org/2000/svg">
    <g fill="#1A1918" fill-rule="evenodd">
        <path d="M153.903 238.01c-.423 0-.847-.037-1.27-.111l-111.34-19.754a7.27 7.27 0 1 1 2.541-14.32l107.96 19.154 85.435-72.916a7.272 7.272 0 1 1 9.442 11.062l-88.048 75.144a7.267 7.267 0 0 1-4.72 1.74M149.337 168.934c-.343 0-.69-.03-1.04-.09l-51.703-8.936a6.058 6.058 0 0 1-4.94-7.003 6.056 6.056 0 0 1 7.004-4.94l51.704 8.936a6.06 6.06 0 0 1-1.025 12.032"/>
        <path d="M153.903 273.517c-.423 0-.847-.037-1.27-.11L41.293 253.65a7.271 7.271 0 1 1 2.541-14.32l107.96 19.155 85.435-72.917a7.272 7.272 0 0 1 9.442 11.062l-88.047 75.145a7.27 7.27 0 0 1-4.721 1.741M170.15 71.829V16.247c0-3.184-3.08-5.765-6.878-5.765h-48.523c-3.8 0-6.88 2.58-6.88 5.765v55.582H67.162l71.85 70.016 71.848-70.016H170.15z"/>
        <path d="M210.26 99.27a7.275 7.275 0 0 0-5.413-4.415l-4.59-.85-12.754 12.43 8.606 1.593-10.476 11.18a6.665 6.665 0 0 0 2.702 10.863l19.682 6.752-56.293 48.66-92.641-16.436 51.312-43.242-10.466-10.2-62.093 52.328a7.274 7.274 0 0 0 3.416 12.721l111.34 19.753a7.27 7.27 0 0 0 6.025-1.659l64.182-55.479a7.273 7.273 0 0 0 1.983-8.237L210.26 99.27z"/>
    </g>
</svg>
