<svg width="280" height="280" viewBox="0 0 280 280" fill="none" xmlns="http://www.w3.org/2000/svg">
<path d="M238.592 76.9999C238.592 75.1609 237.748 73.4234 236.303 72.2858C234.858 71.1481 232.972 70.7359 231.184 71.1674L182.222 82.9849C179.001 83.7624 177.02 87.004 177.797 90.2252C178.575 93.4464 181.817 95.4274 185.038 94.65L216.991 86.9376L158.006 160.867L115.106 123.662C113.894 122.611 112.31 122.089 110.71 122.213C109.11 122.337 107.627 123.097 106.591 124.324L43.416 199.129C41.2779 201.66 41.597 205.446 44.1286 207.584C46.6603 209.722 50.4459 209.403 52.5839 206.871L111.837 136.711L154.866 174.028C156.101 175.098 157.718 175.619 159.345 175.47C160.972 175.321 162.468 174.514 163.487 173.237L226.592 94.1455V126.634C226.592 129.947 229.278 132.634 232.592 132.634C235.905 132.634 238.592 129.947 238.592 126.634V76.9999Z" fill="#C4C4C4"/>
</svg>
