<svg width="280" height="280" viewBox="0 0 280 280" fill="none" xmlns="http://www.w3.org/2000/svg">
<path d="M240.592 77C240.592 74.5479 239.467 72.2313 237.541 70.7144C235.614 69.1975 233.098 68.648 230.715 69.2233L181.753 81.0408C177.458 82.0774 174.817 86.3995 175.853 90.6945C176.89 94.9894 181.212 97.6308 185.507 96.5942L211.789 90.2506L157.742 157.99L116.416 122.151C114.8 120.749 112.689 120.053 110.555 120.219C108.422 120.385 106.444 121.398 105.063 123.033L41.8881 197.838C39.0373 201.214 39.4627 206.261 42.8383 209.112C46.2139 211.963 51.2613 211.537 54.112 208.162L112.057 139.549L153.556 175.539C155.202 176.966 157.359 177.661 159.528 177.462C161.698 177.263 163.692 176.187 165.051 174.484L224.592 99.859V126.634C224.592 131.052 228.173 134.634 232.592 134.634C237.01 134.634 240.592 131.052 240.592 126.634V77Z" fill="#C4C4C4"/>
</svg>
