<svg width="280" height="280" viewBox="0 0 280 280" fill="none" xmlns="http://www.w3.org/2000/svg">
<path d="M241.092 77C241.092 74.3947 239.897 71.9333 237.85 70.3216C235.803 68.7099 233.13 68.126 230.597 68.7372L181.636 80.5547C177.072 81.6562 174.266 86.2484 175.367 90.8118C176.469 95.3752 181.061 98.1816 185.624 97.0802L210.489 91.0789L157.676 157.271L116.744 121.773C115.026 120.284 112.783 119.544 110.517 119.72C108.25 119.897 106.148 120.973 104.681 122.711L41.506 197.516C38.477 201.102 38.9291 206.465 42.5156 209.494C46.1021 212.523 51.465 212.071 54.4939 208.484L112.112 140.259L153.228 175.916C154.977 177.433 157.269 178.171 159.574 177.959C161.879 177.748 163.998 176.606 165.442 174.796L224.092 101.287V126.634C224.092 131.328 227.897 135.134 232.592 135.134C237.286 135.134 241.092 131.328 241.092 126.634V77Z" fill="#C4C4C4"/>
</svg>
