<svg width="280" height="280" viewBox="0 0 280 280" fill="none" xmlns="http://www.w3.org/2000/svg">
<path d="M239.592 76.9999C239.592 74.8544 238.608 72.8274 236.922 71.5001C235.236 70.1728 233.035 69.6919 230.949 70.1953L181.988 82.0129C178.23 82.9199 175.918 86.7018 176.825 90.4598C177.732 94.2179 181.514 96.5291 185.272 95.6221L214.39 88.5941L157.874 159.428L115.761 122.907C114.347 121.68 112.5 121.071 110.633 121.216C108.766 121.361 107.035 122.248 105.827 123.678L42.652 198.483C40.1576 201.437 40.5298 205.854 43.4834 208.348C46.4371 210.842 50.8535 210.47 53.348 207.516L111.947 138.13L154.211 174.783C155.651 176.032 157.538 176.64 159.437 176.466C161.335 176.292 163.08 175.351 164.269 173.861L225.592 97.0022V126.634C225.592 130.5 228.726 133.634 232.592 133.634C236.458 133.634 239.592 130.5 239.592 126.634V76.9999Z" fill="#C4C4C4"/>
</svg>
