<svg width="280" height="280" viewBox="0 0 280 280" xmlns="http://www.w3.org/2000/svg">
    <g transform="translate(41 40)" fill="none" fill-rule="evenodd">
        <path d="M9.5 5a4.5 4.5 0 0 0-9 0v190.496a4.5 4.5 0 0 0 4.513 4.5l188-.526a4.5 4.5 0 1 0-.026-9L9.5 190.983V5z" fill="#1A1918" fill-rule="nonzero"/>
        <path d="M124.897 117.688a4.5 4.5 0 0 0 6.583-.563l43.072-55.362a4.5 4.5 0 1 0-7.104-5.526l-40.083 51.522-33.095-30.17a4.5 4.5 0 0 0-6.573.549l-50.239 64.086a4.5 4.5 0 1 0 7.084 5.552l47.247-60.27 33.108 30.181z" fill="#000" fill-rule="nonzero"/>
        <polygon fill="#000" points="190.429012 36.7381583 185.45821 80.2063096 148.48441 49.1816074"/>
    </g>
</svg>
