<svg width="280" height="280" viewBox="0 0 280 280" xmlns="http://www.w3.org/2000/svg">
    <g fill="none" fill-rule="evenodd">
        <g fill-rule="nonzero">
            <path d="M54 45a8 8 0 1 0-16 0v190.496a8 8 0 0 0 8.022 8l188-.527a8 8 0 1 0-.044-16L54 227.474V45z" fill="#1A1918"/>
            <path d="M163.539 160.274c3.447 3.142 8.84 2.682 11.704-1l43.071-55.362a8 8 0 1 0-12.628-9.824l-37.76 48.535-30.298-27.621c-3.438-3.134-8.816-2.685-11.686.977l-50.238 64.085a8 8 0 0 0 12.592 9.872l44.921-57.304 30.322 27.642z" fill="#000"/>
        </g>
        <polygon fill="#000" points="235.671217 72.3418642 229.694938 124.602604 185.242205 87.3023314"/>
    </g>
</svg>
