<svg width="280" height="280" viewBox="0 0 280 280" xmlns="http://www.w3.org/2000/svg">
    <path d="M117.358 193.281a4.5 4.5 0 0 1 3.586-1.781h102.054c4.142 0 7.502-3.356 7.502-7.49V57.99c0-4.133-3.36-7.49-7.502-7.49H58.002c-4.142 0-7.502 3.356-7.502 7.49v126.02c0 4.133 3.36 7.49 7.502 7.49h25.642a4.5 4.5 0 0 1 4.5 4.5v30.372c0 1.038.003 1.769.011 2.382 7.712-8.01 18.147-20.89 29.203-35.473zM94.181 235.47c-2.984 3.071-4.64 4.031-8.267 4.031-3.753 0-5.753-2.587-6.409-6.074-.313-1.663-.361-3.061-.361-6.9V200.5H58.002c-9.112 0-16.502-7.384-16.502-16.49V57.99c0-9.107 7.392-16.49 16.502-16.49h164.996c9.112 0 16.502 7.384 16.502 16.49v126.02c0 9.107-7.392 16.49-16.502 16.49h-99.822c-10.97 14.397-21.228 26.98-28.995 34.97z" fill-rule="nonzero" fill="#000"/>
</svg>
