<svg width="280" height="280" viewBox="0 0 280 280" fill="none" xmlns="http://www.w3.org/2000/svg">
<path fill-rule="evenodd" clip-rule="evenodd" d="M40 84C40 66.3269 54.3269 52 72 52H209C226.673 52 241 66.3269 241 84V162.952C241 180.625 226.673 194.952 209 194.952H123.674C115.862 203.883 104.02 217.002 94.9639 225.135C94.9206 225.174 94.8759 225.214 94.8301 225.256C94.009 225.995 92.7917 227.092 91.3087 227.842C89.4429 228.786 87.629 229 85.9142 229C83.758 229 81.6506 228.161 80.1096 226.421C78.8008 224.943 78.297 223.253 78.0622 222.163C77.6391 220.2 77.6417 217.775 77.6438 215.951C77.6439 215.832 77.644 215.715 77.644 215.602L77.644 194.952H72C54.3269 194.952 40 180.625 40 162.952V84ZM72 64C60.9543 64 52 72.9543 52 84V162.952C52 173.998 60.9543 182.952 72 182.952H83.644C86.9577 182.952 89.644 185.639 89.644 188.952V213.712C98.4492 205.357 109.417 193.075 116.414 185.018C117.553 183.706 119.206 182.952 120.944 182.952H209C220.046 182.952 229 173.998 229 162.952V84C229 72.9543 220.046 64 209 64H72ZM89.7928 219.635C89.8068 219.7 89.8105 219.694 89.7928 219.635C89.7928 219.635 89.7928 219.635 89.7928 219.635Z" fill="#C4C4C4"/>
</svg>
