<svg width="280" height="280" viewBox="0 0 280 280" fill="none" xmlns="http://www.w3.org/2000/svg">
<path fill-rule="evenodd" clip-rule="evenodd" d="M140.564 40.5C116.025 40.5 96.1254 60.3156 96.1254 84.7689C96.1254 97.6176 101.668 109.512 110.937 117.769C86.1002 129.565 69.5 155.897 69.5 185.592C69.5 188.077 71.5147 190.092 74 190.092H205.352C207.837 190.092 209.852 188.077 209.852 185.592C209.852 156.379 193.785 130.391 169.555 118.324C179.197 110.058 185.002 97.9174 185.002 84.7689C185.002 60.3156 165.102 40.5 140.564 40.5ZM158.141 115.401C154.791 117.31 155.236 122.273 158.872 123.555C182.375 131.843 199.007 154.568 200.708 181.092H78.6439C80.3718 154.153 97.4991 131.162 121.517 123.2C125.177 121.987 125.716 117.034 122.403 115.062C111.768 108.732 105.125 97.3241 105.125 84.7689C105.125 65.2947 120.987 49.5 140.564 49.5C160.14 49.5 176.002 65.2947 176.002 84.7689C176.002 97.5632 169.102 109.157 158.141 115.401Z" fill="black"/>
<path d="M136.467 254.077C138.244 255.974 141.256 255.974 143.033 254.077L160.444 235.5H235.5C237.985 235.5 240 233.485 240 231C240 228.515 237.985 226.5 235.5 226.5H158.494C157.25 226.5 156.061 227.015 155.21 227.923L139.75 244.419L124.29 227.923C123.439 227.015 122.25 226.5 121.006 226.5H44C41.5147 226.5 39.5 228.515 39.5 231C39.5 233.485 41.5147 235.5 44 235.5H119.056L136.467 254.077Z" fill="#C4C4C4"/>
</svg>
