<svg width="284" height="284" viewBox="0 0 284 284" xmlns="http://www.w3.org/2000/svg">
    <g fill="#1A1918" fill-rule="evenodd">
        <path d="M220.073 144.688c8.65-6.603 14.273-17.203 14.273-29.136 0-19.971-15.74-36.218-35.085-36.218-.201 0-.4.012-.6.015-.03 3.76-.166 7.548-.32 11.348.306-.012.612-.025.92-.025 13.094 0 23.748 11.16 23.748 24.88 0 13.719-10.654 24.88-23.748 24.88-13.094 0-23.75-11.161-23.75-24.88 0-13.396 10.162-24.346 22.83-24.855.154-3.8.29-7.587.32-11.348-19.07.333-34.486 16.44-34.486 36.203 0 11.997 5.684 22.646 14.415 29.24-3.61 1.889-7.011 4.465-10.57 7.872a5.672 5.672 0 0 0-.172 8.017 5.674 5.674 0 0 0 8.017.173c7.267-6.961 12.865-9.083 23.96-9.083 21.966 0 40.136 18.305 42.68 41.838H194.62a5.669 5.669 0 1 0 0 11.338h53.858a5.669 5.669 0 0 0 5.669-5.67c0-24.696-14.123-45.873-34.074-54.59"/>
        <path d="M180.22 223.546c-.198-35.998-22.015-66.52-52.029-77.034 14.218-8.52 23.81-24.415 23.81-42.594 0-27.1-21.299-49.15-47.497-49.204 0 3.776-.004 7.552-.008 11.339 19.95.05 36.166 17.015 36.166 37.865 0 20.88-16.263 37.867-36.253 37.867-.22 0-.439-.013-.659-.018-.095 4.074-.209 8.14-.329 12.205.597-.02 1.192-.048 1.793-.048 33.373 0 60.831 28.428 63.462 64.449H41.756c2.581-35.372 29.11-63.402 61.665-64.401.12-4.065.234-8.131.33-12.205-19.688-.37-35.598-17.2-35.598-37.85 0-20.88 16.265-37.866 36.256-37.866l.087.002c.004-3.787.007-7.563.008-11.34l-.095-.001c-26.244 0-47.595 22.074-47.595 49.206 0 18.44 9.868 34.535 24.426 42.96-29.632 10.888-51.03 41.354-51.03 77.164a5.669 5.669 0 0 0 5.67 5.669H174.55a5.669 5.669 0 0 0 5.668-6.165"/>
    </g>
</svg>
