<svg width="280" height="280" viewBox="0 0 280 280" fill="none" xmlns="http://www.w3.org/2000/svg">
<path fill-rule="evenodd" clip-rule="evenodd" d="M83.492 100.615C83.492 68.7816 109.356 43 141.23 43C173.104 43 198.968 68.7816 198.968 100.615C198.968 117.998 191.252 133.574 179.071 144.131C209.993 159.682 231.161 193.065 231.161 231.47C231.161 234.784 228.474 237.47 225.161 237.47H55C51.6863 237.47 49 234.784 49 231.47C49 192.458 70.8434 158.624 102.567 143.405C90.8625 132.867 83.492 117.604 83.492 100.615ZM141.23 55C115.956 55 95.492 75.436 95.492 100.615C95.492 117.251 104.419 131.82 117.795 139.797C119.811 140.999 120.941 143.266 120.687 145.6C120.433 147.933 118.841 149.904 116.613 150.644C86.2781 160.718 63.5165 189.962 61.1954 225.47H218.965C216.678 190.489 194.552 161.583 164.888 151.104C162.675 150.322 161.121 148.321 160.911 145.983C160.701 143.645 161.874 141.399 163.913 140.235C177.704 132.363 186.968 117.561 186.968 100.615C186.968 75.436 166.504 55 141.23 55Z" fill="#C4C4C4"/>
</svg>
