<svg width="280" height="280" viewBox="0 0 280 280" xmlns="http://www.w3.org/2000/svg">
    <path d="M165.388 149.69c-3.633-1.284-4.078-6.242-.732-8.152 14.61-8.34 23.812-23.829 23.812-40.923 0-26.019-21.147-47.115-47.238-47.115s-47.238 21.096-47.238 47.115c0 16.775 8.858 32.016 23.035 40.47 3.309 1.973 2.77 6.921-.887 8.136-32.06 10.647-54.78 41.635-56.531 77.749h160.943c-1.726-35.564-23.787-66.196-55.164-77.28zm-80.396-49.075c0-30.994 25.181-56.115 56.238-56.115s56.238 25.121 56.238 56.115c0 17.377-7.986 33.366-21.136 43.849 31.974 15.012 53.329 48.855 53.329 87.006a4.5 4.5 0 0 1-4.5 4.5H55a4.5 4.5 0 0 1-4.5-4.5c0-38.769 22.05-73.046 54.798-87.681-12.667-10.497-20.306-26.177-20.306-43.174z" fill-rule="nonzero" fill="#000"/>
</svg>
