<svg width="280" height="280" viewBox="0 0 280 280" xmlns="http://www.w3.org/2000/svg">
    <g fill-rule="nonzero" fill="#000">
        <path d="M136.467 254.077a4.5 4.5 0 0 0 6.566 0l17.41-18.577H235.5a4.5 4.5 0 0 0 0-9h-77.006a4.5 4.5 0 0 0-3.284 1.423l-15.46 16.496-15.46-16.496a4.5 4.5 0 0 0-3.284-1.423H44a4.5 4.5 0 0 0 0 9h75.056l17.41 18.577zM158.872 123.555c-3.636-1.282-4.08-6.245-.73-8.154 10.96-6.244 17.86-17.838 17.86-30.632 0-19.474-15.862-35.269-35.438-35.269-19.577 0-35.439 15.795-35.439 35.269 0 12.555 6.643 23.963 17.278 30.293 3.313 1.972 2.774 6.925-.886 8.138-24.018 7.962-41.145 30.953-42.873 57.892h122.064c-1.701-26.524-18.333-49.25-41.836-57.537zM96.125 84.769c0-24.453 19.9-44.269 44.439-44.269 24.538 0 44.438 19.816 44.438 44.269 0 13.148-5.806 25.289-15.447 33.555 24.23 12.067 40.297 38.055 40.297 67.268a4.5 4.5 0 0 1-4.5 4.5H74a4.5 4.5 0 0 1-4.5-4.5c0-29.695 16.6-56.027 41.437-67.823-9.269-8.257-14.812-20.151-14.812-33z"/>
    </g>
</svg>
