<svg width="284" height="284" viewBox="0 0 284 284" xmlns="http://www.w3.org/2000/svg">
    <g fill="#1A1918" fill-rule="evenodd">
        <path d="M199.917 79.333c-19.348 0-35.087 16.248-35.087 36.218 0 19.971 15.74 36.22 35.087 36.22 19.346 0 35.085-16.249 35.085-36.22 0-19.97-15.739-36.218-35.085-36.218"/>
        <path d="M200.482 140.431c-13.867 0-30.384 11.17-31.08 11.646a5.67 5.67 0 0 0-1.054 8.432c.075.085 7.576 8.633 12.699 17.792 5.085 9.09 8.722 22.332 8.758 22.465a5.67 5.67 0 0 0 5.47 4.181h53.859a5.669 5.669 0 0 0 5.669-5.669c0-32.449-24.368-58.847-54.321-58.847"/>
        <path d="M180.875 223.546c-.197-35.998-22.014-66.52-52.028-77.034 14.218-8.52 23.81-24.415 23.81-42.594 0-27.132-21.35-49.206-47.592-49.206-26.244 0-47.595 22.074-47.595 49.206 0 18.44 9.868 34.535 24.427 42.96-29.633 10.888-51.03 41.353-51.03 77.164a5.669 5.669 0 0 0 5.668 5.669h138.672a5.669 5.669 0 0 0 5.668-6.165"/>
    </g>
</svg>
