<svg width="280" height="280" viewBox="0 0 280 280" fill="none" xmlns="http://www.w3.org/2000/svg">
<path d="M168.997 165.5C170.869 157.54 172 149.149 172 140.5C172 131.487 170.772 122.756 168.758 114.5H181.077C182.902 122.755 184 131.472 184 140.5C184 149.164 182.988 157.542 181.294 165.5H168.997Z" fill="black"/>
<path d="M137.287 227.942C138.252 226.776 139.575 225.127 141.144 223.043C144.579 218.481 149.174 211.859 153.768 203.677C158.032 196.084 162.246 187.232 165.547 177.5H178.161C174.4 189.674 169.285 200.551 164.232 209.552C160.295 216.563 156.359 222.502 153.05 227.107C148.952 227.695 144.761 228 140.5 228C139.424 228 138.353 227.981 137.287 227.942Z" fill="black"/>
<path d="M177.848 102.5H165.204C161.957 93.1612 157.885 84.6554 153.768 77.3229C149.174 69.1405 144.579 62.519 141.144 57.9567C139.575 55.8729 138.252 54.224 137.287 53.0579C138.353 53.0194 139.424 53 140.5 53C144.762 53 148.952 53.3047 153.051 53.8934C156.359 58.4981 160.295 64.4366 164.232 71.4481C169.147 80.2018 174.119 90.7301 177.848 102.5Z" fill="black"/>
<path d="M140.571 223.8C139.252 225.53 138.132 226.921 137.287 227.942C134.211 227.831 131.175 227.561 128.188 227.141C124.953 222.523 121.094 216.551 117.235 209.493C112.321 200.502 107.35 189.646 103.692 177.5H116.275C119.494 187.259 123.607 196.131 127.765 203.736C132.239 211.921 136.713 218.543 140.058 223.105C140.232 223.342 140.403 223.574 140.571 223.8Z" fill="black"/>
<path d="M137.287 53.058C138.132 54.0791 139.252 55.4704 140.571 57.1996C140.403 57.4258 140.232 57.6577 140.058 57.8952C136.713 62.4571 132.239 69.0792 127.765 77.2636C123.749 84.6084 119.776 93.1348 116.609 102.5H103.997C107.623 90.7579 112.456 80.2502 117.235 71.5074C121.094 64.449 124.953 58.4776 128.188 53.8596C131.175 53.4389 134.211 53.169 137.287 53.058Z" fill="black"/>
<path d="M100.849 114.5H113.152C111.194 122.755 110 131.486 110 140.5C110 149.151 111.1 157.541 112.92 165.5H100.638C98.9863 157.542 98 149.163 98 140.5C98 131.473 99.0708 122.755 100.849 114.5Z" fill="black"/>
<path d="M219.34 102.5H61.6599C59.8001 106.351 58.2143 110.36 56.9277 114.5H224.072C222.786 110.36 221.2 106.351 219.34 102.5Z" fill="black"/>
<path d="M224.376 165.5H56.6235C57.8545 169.636 59.3833 173.645 61.1848 177.5H219.815C221.617 173.645 223.145 169.636 224.376 165.5Z" fill="black"/>
<path fill-rule="evenodd" clip-rule="evenodd" d="M41 140.5C41 85.5477 85.5477 41 140.5 41C195.452 41 240 85.5477 240 140.5C240 195.452 195.452 240 140.5 240C85.5477 240 41 195.452 41 140.5ZM140.5 53C92.1751 53 53 92.1751 53 140.5C53 188.825 92.1751 228 140.5 228C188.825 228 228 188.825 228 140.5C228 92.1751 188.825 53 140.5 53Z" fill="black"/>
</svg>
