<svg width="280" height="280" viewBox="0 0 280 280" xmlns="http://www.w3.org/2000/svg">
    <g transform="translate(42 42)" fill-rule="nonzero" fill="#000">
        <path d="M98.5 196.5c-54.124 0-98-43.876-98-98s43.876-98 98-98 98 43.876 98 98-43.876 98-98 98zm0-9c49.153 0 89-39.847 89-89s-39.847-89-89-89-89 39.847-89 89 39.847 89 89 89z"/>
        <path d="M95.628 2.02a69.74 69.74 0 0 0-1.71 2.042 144.104 144.104 0 0 0-4.328 5.625 184.701 184.701 0 0 0-13.038 20.54C64.655 51.987 57.5 75.063 57.5 98.5c0 23.437 7.155 46.513 19.052 68.273a184.701 184.701 0 0 0 13.038 20.54 144.104 144.104 0 0 0 4.327 5.625 69.74 69.74 0 0 0 1.711 2.042l6.744-5.96a81.13 81.13 0 0 1-1.469-1.757 135.153 135.153 0 0 1-4.055-5.271 175.752 175.752 0 0 1-12.4-19.536C73.22 141.916 66.5 120.246 66.5 98.5c0-21.746 6.72-43.416 17.948-63.956a175.752 175.752 0 0 1 12.4-19.536 135.154 135.154 0 0 1 4.055-5.271 81.129 81.129 0 0 1 1.469-1.757l-6.744-5.96z"/>
        <path d="M94.668 8.025c.054.06.178.199.367.415.327.375.709.823 1.142 1.342a135.66 135.66 0 0 1 4.166 5.272 175.182 175.182 0 0 1 12.733 19.535C124.603 55.119 131.5 76.775 131.5 98.5s-6.897 43.38-18.424 63.911a175.182 175.182 0 0 1-12.733 19.535 135.66 135.66 0 0 1-4.166 5.272 81.683 81.683 0 0 1-1.509 1.757l6.664 6.05a70.2 70.2 0 0 0 1.756-2.042 144.61 144.61 0 0 0 4.444-5.624 184.13 184.13 0 0 0 13.392-20.541c12.223-21.77 19.576-44.86 19.576-68.318 0-23.459-7.353-46.548-19.576-68.318a184.13 184.13 0 0 0-13.392-20.541 144.61 144.61 0 0 0-4.444-5.624 70.2 70.2 0 0 0-1.756-2.042l-6.664 6.05z"/>
        <polygon points="11.5 71 185.5 71 185.5 62 11.5 62"/>
        <polygon points="11.5 134 185.5 134 185.5 125 11.5 125"/>
    </g>
</svg>
