<svg width="280" height="280" viewBox="0 0 280 280" fill="none" xmlns="http://www.w3.org/2000/svg">
<path d="M167.402 163.5C169.031 156.137 170 148.425 170 140.5C170 132.216 168.941 124.163 167.177 116.5H183.544C185.087 124.159 186 132.197 186 140.5C186 148.443 185.165 156.143 183.741 163.5H167.402Z" fill="black"/>
<path d="M136.373 225.902C137.239 224.837 138.315 223.475 139.547 221.84C142.939 217.334 147.482 210.788 152.024 202.698C155.855 195.876 159.631 188.05 162.727 179.5H179.628C175.861 191.277 170.881 201.795 165.976 210.531C163.044 215.752 160.113 220.384 157.436 224.323C151.961 225.423 146.298 226 140.5 226C139.117 226 137.741 225.967 136.373 225.902Z" fill="black"/>
<path d="M179.305 100.5H162.361C159.336 92.3389 155.705 84.8574 152.024 78.3021C147.482 70.2122 142.939 63.6657 139.547 59.1597C138.315 57.5245 137.239 56.1626 136.373 55.0978C137.741 55.0329 139.117 55 140.5 55C146.298 55 151.961 55.5771 157.436 56.6771C160.113 60.6161 163.044 65.2482 165.976 70.4689C170.742 78.9574 175.579 89.1275 179.305 100.5Z" fill="black"/>
<path d="M140.593 220.434C140.234 220.923 139.884 221.392 139.547 221.84C138.315 223.475 137.239 224.837 136.373 225.902C132.124 225.7 127.956 225.188 123.892 224.388C121.258 220.418 118.369 215.736 115.48 210.452C110.712 201.73 105.875 191.24 102.214 179.5H119.069C122.091 188.085 125.781 195.938 129.52 202.777C133.478 210.019 137.437 216.023 140.593 220.434Z" fill="black"/>
<path d="M136.374 55.0979C137.239 56.1626 138.315 57.5246 139.547 59.1598C139.884 59.6084 140.234 60.0772 140.593 60.5658C137.437 64.9768 133.478 70.9812 129.52 78.2229C125.926 84.7959 122.379 92.3046 119.425 100.5H102.529C106.151 89.1642 110.848 79.0215 115.48 70.548C118.369 65.2637 121.258 60.5823 123.891 56.6121C127.956 55.812 132.124 55.2998 136.374 55.0979Z" fill="black"/>
<path d="M98.3954 116.5H114.744C113.029 124.162 112 132.214 112 140.5C112 148.426 112.942 156.138 114.525 163.5H98.2028C96.8144 156.142 96 148.442 96 140.5C96 132.198 96.89 124.16 98.3954 116.5Z" fill="black"/>
<path d="M216.085 100.5H64.9144C62.2344 105.554 60.0465 110.908 58.4143 116.5H222.586C220.953 110.908 218.765 105.554 216.085 100.5Z" fill="black"/>
<path d="M222.871 163.5H58.1292C59.6852 169.085 61.7939 174.439 64.3927 179.5H216.607C219.206 174.439 221.315 169.085 222.871 163.5Z" fill="black"/>
<path fill-rule="evenodd" clip-rule="evenodd" d="M39 140.5C39 84.4431 84.4431 39 140.5 39C196.557 39 242 84.4431 242 140.5C242 196.557 196.557 242 140.5 242C84.4431 242 39 196.557 39 140.5ZM140.5 55C93.2797 55 55 93.2797 55 140.5C55 187.72 93.2797 226 140.5 226C187.72 226 226 187.72 226 140.5C226 93.2797 187.72 55 140.5 55Z" fill="black"/>
</svg>
