<svg width="280" height="280" viewBox="0 0 280 280" xmlns="http://www.w3.org/2000/svg">
    <g transform="translate(39 39)" fill-rule="nonzero" fill="#000">
        <path d="M101.5 203C45.443 203 0 157.557 0 101.5S45.443 0 101.5 0 203 45.443 203 101.5 157.557 203 101.5 203zm0-16c47.22 0 85.5-38.28 85.5-85.5S148.72 16 101.5 16 16 54.28 16 101.5 54.28 187 101.5 187z"/>
        <path d="M96.006 2.702A72.893 72.893 0 0 0 94.2 4.856a147.586 147.586 0 0 0-4.434 5.762 188.181 188.181 0 0 0-13.287 20.93C64.325 53.783 57 77.405 57 101.5s7.325 47.717 19.48 69.952a188.181 188.181 0 0 0 13.287 20.93 147.587 147.587 0 0 0 4.434 5.762 72.894 72.894 0 0 0 1.805 2.154l11.988-10.596a77.657 77.657 0 0 1-1.375-1.645 131.673 131.673 0 0 1-3.948-5.135 172.272 172.272 0 0 1-12.151-19.145C79.55 143.712 73 122.589 73 101.5s6.55-42.212 17.52-62.277a172.272 172.272 0 0 1 12.15-19.145 131.673 131.673 0 0 1 3.95-5.134 77.657 77.657 0 0 1 1.374-1.646L96.006 2.702z"/>
        <path d="M95.077 13.377c.038.043.147.164.32.363.31.356.676.785 1.093 1.284a132.18 132.18 0 0 1 4.057 5.136 171.703 171.703 0 0 1 12.477 19.142C124.281 59.351 131 80.45 131 101.5c0 21.051-6.72 42.15-17.976 62.198a171.703 171.703 0 0 1-12.477 19.142 132.18 132.18 0 0 1-4.057 5.136 78.217 78.217 0 0 1-1.413 1.647l11.846 10.754c.37-.408 1-1.13 1.853-2.152a148.093 148.093 0 0 0 4.552-5.76 187.61 187.61 0 0 0 13.648-20.934C139.469 149.28 147 125.633 147 101.5c0-24.133-7.53-47.78-20.024-70.031a187.61 187.61 0 0 0-13.648-20.933 148.093 148.093 0 0 0-4.552-5.761 73.352 73.352 0 0 0-1.853-2.152L95.077 13.377z"/>
        <polygon points="14.5 77.5 188.5 77.5 188.5 61.5 14.5 61.5"/>
        <polygon points="14.5 143.5 188.5 143.5 188.5 127.5 14.5 127.5"/>
    </g>
</svg>
